<svg width="24" height="24" viewBox="0 0 24 24" fill="none" xmlns="http://www.w3.org/2000/svg">
<path d="M2 21C2 20.4477 2.44772 20 3 20H21C21.5523 20 22 20.4477 22 21C22 21.5523 21.5523 22 21 22H3C2.44772 22 2 21.5523 2 21ZM4 13C4 12.4477 4.44772 12 5 12C5.55228 12 6 12.4477 6 13V18C6 18.5523 5.55228 19 5 19C4.44772 19 4 18.5523 4 18V13ZM9 13C9 12.4477 9.44772 12 10 12C10.5523 12 11 12.4477 11 13V18C11 18.5523 10.5523 19 10 19C9.44772 19 9 18.5523 9 18V13ZM13 13C13 12.4477 13.4477 12 14 12C14.5523 12 15 12.4477 15 13V18C15 18.5523 14.5523 19 14 19C13.4477 19 13 18.5523 13 18V13ZM18 13C18 12.4477 18.4477 12 19 12C19.5523 12 20 12.4477 20 13V18C20 18.5523 19.5523 19 19 19C18.4477 19 18 18.5523 18 18V13ZM2 7.61803C2 7.23926 2.214 6.893 2.55279 6.72361L11.5528 2.22361C11.8343 2.08284 12.1657 2.08284 12.4472 2.22361L21.4472 6.72361C21.786 6.893 22 7.23926 22 7.61803V10C22 10.5523 21.5523 11 21 11H3C2.44772 11 2 10.5523 2 10V7.61803ZM4.26099 8.10557C4.10104 8.18555 4 8.34903 4 8.52786C4 8.78862 4.21138 9 4.47214 9H19.5279C19.7886 9 20 8.78862 20 8.52786C20 8.34903 19.899 8.18555 19.739 8.10557L12.4472 4.45968C12.1657 4.31891 11.8343 4.31891 11.5528 4.45968L4.26099 8.10557ZM12 8C11.4477 8 11 7.55228 11 7C11 6.44772 11.4477 6 12 6C12.5523 6 13 6.44772 13 7C13 7.55228 12.5523 8 12 8Z" fill="currentColor"/>
</svg>
