<svg width="24" height="24" viewBox="0 0 24 24" fill="none" xmlns="http://www.w3.org/2000/svg">
<path d="M3 5C3 3.89543 3.89543 3 5 3H9C10.1046 3 11 3.89543 11 5V7C11 8.10457 10.1046 9 9 9H5C3.89543 9 3 8.10457 3 7V5ZM9 5H5V7H9V5ZM13 5C13 3.89543 13.8954 3 15 3H19C20.1046 3 21 3.89543 21 5V11C21 12.1046 20.1046 13 19 13H15C13.8954 13 13 12.1046 13 11V5ZM19 5H15V11H19V5ZM3 13C3 11.8954 3.89543 11 5 11H9C10.1046 11 11 11.8954 11 13V19C11 20.1046 10.1046 21 9 21H5C3.89543 21 3 20.1046 3 19V13ZM9 13H5V19H9V13ZM13 17C13 15.8954 13.8954 15 15 15H19C20.1046 15 21 15.8954 21 17V19C21 20.1046 20.1046 21 19 21H15C13.8954 21 13 20.1046 13 19V17ZM19 17H15V19H19V17Z" fill="currentColor"/>
</svg>
