<svg width="24" height="24" viewBox="0 0 24 24" fill="none" xmlns="http://www.w3.org/2000/svg">
<path d="M8.00008 6V9H5.00008V6H8.00008ZM4.00008 4C3.44779 4 3.00008 4.44772 3.00008 5V10C3.00008 10.5523 3.44779 11 4.00008 11H9.0001C9.55238 11 10.0001 10.5523 10.0001 10V5C10.0001 4.44772 9.55238 4 9.0001 4H4.00008ZM13.0001 5C13.0001 4.44772 13.4478 4 14.0001 4H20.0001C20.5524 4 21.0001 4.44772 21.0001 5C21.0001 5.55228 20.5524 6 20.0001 6H14.0001C13.4478 6 13.0001 5.55228 13.0001 5ZM13.0001 12C13.0001 11.4477 13.4478 11 14.0001 11H20.0001C20.5524 11 21.0001 11.4477 21.0001 12C21.0001 12.5523 20.5524 13 20.0001 13H14.0001C13.4478 13 13.0001 12.5523 13.0001 12ZM13.0001 19C13.0001 18.4477 13.4478 18 14.0001 18H20.0001C20.5524 18 21.0001 18.4477 21.0001 19C21.0001 19.5523 20.5524 20 20.0001 20H14.0001C13.4478 20 13.0001 19.5523 13.0001 19ZM10.0001 16.9142C10.3906 16.5237 10.3906 15.8905 10.0001 15.5C9.60955 15.1095 8.97639 15.1095 8.58587 15.5L6.00008 18.0858L4.91428 17C4.52376 16.6095 3.8906 16.6095 3.50008 17C3.10955 17.3905 3.10955 18.0237 3.50008 18.4142L6.00008 20.9142L10.0001 16.9142Z" fill="currentColor"/>
</svg>
