<svg width="24" height="24" viewBox="0 0 24 24" fill="none" xmlns="http://www.w3.org/2000/svg">
<path d="M10.7577 11.8279L17.8995 4.68612C18.29 4.29559 18.9232 4.29559 19.3137 4.68612C19.7042 5.07664 19.7042 5.7098 19.3137 6.10032L18.6066 6.80743L20.3744 8.57521C20.7649 8.96573 20.7649 9.59889 20.3744 9.98942C19.9839 10.3799 19.3507 10.3799 18.9602 9.98942L17.1924 8.22164L15.7782 9.63586L17.1924 11.0501C17.5829 11.4406 17.5829 12.0738 17.1924 12.4643C16.8019 12.8548 16.1687 12.8548 15.7782 12.4643L14.364 11.0501L12.1719 13.2421C13.4581 15.1835 13.246 17.8249 11.5355 19.5354C9.58291 21.488 6.41709 21.488 4.46447 19.5354C2.51184 17.5827 2.51184 14.4169 4.46447 12.4643C6.17493 10.7538 8.81633 10.5417 10.7577 11.8279ZM10.1213 18.1211C11.2929 16.9496 11.2929 15.0501 10.1213 13.8785C8.94975 12.7069 7.05025 12.7069 5.87868 13.8785C4.70711 15.0501 4.70711 16.9496 5.87868 18.1211C7.05025 19.2927 8.94975 19.2927 10.1213 18.1211Z" fill="#747679"/>
</svg>
