<svg width="24" height="24" viewBox="0 0 24 24" fill="none" xmlns="http://www.w3.org/2000/svg">
<path d="M8 1C8.55228 1 9 1.44772 9 2V3H15V2C15 1.44772 15.4477 1 16 1C16.5523 1 17 1.44772 17 2V3H21C21.5523 3 22 3.44772 22 4V20C22 20.5523 21.5523 21 21 21H3C2.44772 21 2 20.5523 2 20V4C2 3.44772 2.44772 3 3 3H7V2C7 1.44772 7.44772 1 8 1ZM20 11H4V19H20V11ZM7 14C7.55228 14 8 14.4477 8 15C8 15.5523 7.55228 16 7 16C6.44772 16 6 15.5523 6 15C6 14.4477 6.44772 14 7 14ZM17 14C17.5523 14 18 14.4477 18 15C18 15.5523 17.5523 16 17 16H11C10.4477 16 10 15.5523 10 15C10 14.4477 10.4477 14 11 14H17ZM7 5H4V9H20V5H17V6C17 6.55228 16.5523 7 16 7C15.4477 7 15 6.55228 15 6V5H9V6C9 6.55228 8.55228 7 8 7C7.44772 7 7 6.55228 7 6V5Z" fill="#747679"/>
</svg>
