<svg width="24" height="24" viewBox="0 0 24 24" fill="none" xmlns="http://www.w3.org/2000/svg">
<path d="M2 4C2 3.44772 2.44772 3 3 3H21C21.5523 3 22 3.44772 22 4V9.5C20.6193 9.5 19.5 10.6193 19.5 12C19.5 13.3807 20.6193 14.5 22 14.5V20C22 20.5523 21.5523 21 21 21H3C2.44772 21 2 20.5523 2 20V4ZM8.08536 19C8.29127 18.4174 8.84689 18 9.5 18C10.1531 18 10.7087 18.4174 10.9146 19H20V16.0322C18.5183 15.2959 17.5 13.7669 17.5 12C17.5 10.2331 18.5183 8.70411 20 7.96776V5H10.9146C10.7087 5.5826 10.1531 6 9.5 6C8.84689 6 8.29127 5.5826 8.08536 5H4V19H8.08536ZM9.5 11C8.67158 11 8 10.3284 8 9.5C8 8.67157 8.67158 8 9.5 8C10.3284 8 11 8.67157 11 9.5C11 10.3284 10.3284 11 9.5 11ZM9.5 16C8.67158 16 8 15.3284 8 14.5C8 13.6716 8.67158 13 9.5 13C10.3284 13 11 13.6716 11 14.5C11 15.3284 10.3284 16 9.5 16Z" fill="#747679"/>
</svg>
