<svg width="24" height="24" viewBox="0 0 24 24" fill="none" xmlns="http://www.w3.org/2000/svg">
<path d="M2.60608 6.74025C3.26595 6.45745 4 6.94148 4 7.6594V18.9669L8.63846 16.979C8.90883 16.8631 9.2165 16.8722 9.47959 17.0037L15.0648 19.7963L20 17.6812V5.51653C20 5.1165 20.2384 4.75497 20.6061 4.59739L21.303 4.2987C21.5569 4.18992 21.8508 4.30749 21.9596 4.56131C21.9862 4.62355 22 4.69056 22 4.75827V19L15.4263 21.8173C15.1559 21.9332 14.8483 21.9241 14.5852 21.7926L9 19L2.69696 21.7013C2.44314 21.8101 2.14921 21.6925 2.04043 21.4387C2.01375 21.3765 2 21.3094 2 21.2417V7.6594C2 7.25937 2.2384 6.89783 2.60608 6.74025ZM16.2426 11.2426L12 15.4853L7.75736 11.2426C5.41421 8.89949 5.41421 5.10051 7.75736 2.75736C10.1005 0.414213 13.8995 0.414213 16.2426 2.75736C18.5858 5.10051 18.5858 8.89949 16.2426 11.2426ZM12 12.6569L14.8284 9.82843C16.3905 8.26633 16.3905 5.73367 14.8284 4.17157C13.2663 2.60948 10.7337 2.60948 9.17157 4.17157C7.60948 5.73367 7.60948 8.26633 9.17157 9.82843L12 12.6569Z" fill="#747679"/>
</svg>
