<svg xmlns="http://www.w3.org/2000/svg" width="20" height="20" viewBox="0 0 20 20" fill="none">
  <path d="M2.5 4.16683C2.5 3.70659 2.8731 3.3335 3.33333 3.3335H16.6667C17.1269 3.3335 17.5 3.70659 17.5 4.16683V4.16683C17.5 4.62707 17.1269 5.00016 16.6667 5.00016H3.33333C2.8731 5.00016 2.5 4.62707 2.5 4.16683V4.16683ZM2.5 16.6668C2.5 16.2066 2.8731 15.8335 3.33333 15.8335H13.3333C13.7936 15.8335 14.1667 16.2066 14.1667 16.6668V16.6668C14.1667 17.1271 13.7936 17.5002 13.3333 17.5002H3.33333C2.8731 17.5002 2.5 17.1271 2.5 16.6668V16.6668ZM2.5 12.5002C2.5 12.0399 2.8731 11.6668 3.33333 11.6668H16.6667C17.1269 11.6668 17.5 12.0399 17.5 12.5002V12.5002C17.5 12.9604 17.1269 13.3335 16.6667 13.3335H3.33333C2.8731 13.3335 2.5 12.9604 2.5 12.5002V12.5002ZM2.5 8.3335C2.5 7.87326 2.8731 7.50016 3.33333 7.50016H13.3333C13.7936 7.50016 14.1667 7.87326 14.1667 8.3335V8.3335C14.1667 8.79373 13.7936 9.16683 13.3333 9.16683H3.33333C2.8731 9.16683 2.5 8.79373 2.5 8.3335V8.3335Z" fill="currentColor"/>
</svg>
