<svg width="20" height="20" viewBox="0 0 20 20" fill="none" xmlns="http://www.w3.org/2000/svg">
<g id="ARROW-up">
<path id="Vector" d="M10.0049 5V6.9697H13.3941L10.748 9.70857C10.6623 9.79819 10.395 9.92424 10.2722 9.92424H8.78601C8.15898 9.92424 7.38542 10.2345 6.94202 10.6934L3.612 14.1404C3.24044 14.5255 3.24044 15.1715 3.612 15.5566C3.79782 15.7486 4.05244 15.8333 4.29593 15.8333C4.53941 15.8333 4.79403 15.7486 4.97986 15.5566L8.31027 12.1096C8.3959 12.02 8.66327 11.8939 8.78601 11.8939H10.2722C10.8993 11.8939 11.6728 11.5837 12.1162 11.1248L14.7623 8.3859V11.8939H16.6653V5.98485C16.6653 5.44121 16.239 5 15.7138 5H10.0049Z" fill="currentColor"/>
</g>
</svg>
