<svg width="16" height="16" viewBox="0 0 16 16" fill="none" xmlns="http://www.w3.org/2000/svg">
<path d="M8.19461 3.52925C8.45496 3.2689 8.87707 3.2689 9.13742 3.52925L13.1374 7.52925C13.2624 7.65427 13.3327 7.82384 13.3327 8.00065C13.3327 8.17746 13.2624 8.34703 13.1374 8.47206L9.13742 12.4721C8.87707 12.7324 8.45496 12.7324 8.19461 12.4721C7.93426 12.2117 7.93426 11.7896 8.19461 11.5292L11.0565 8.66732L3.33268 8.66732C2.96449 8.66732 2.66602 8.36884 2.66602 8.00065C2.66602 7.63246 2.96449 7.33399 3.33268 7.33399L11.0565 7.33398L8.19461 4.47206C7.93426 4.21171 7.93426 3.7896 8.19461 3.52925Z" fill="#B0B0B1"/>
</svg>
