<svg width="25" height="24" viewBox="0 0 25 24" fill="none" xmlns="http://www.w3.org/2000/svg">
<path d="M6.18014 7.09436C5.12708 8.44904 4.5 10.1513 4.5 12C4.5 16.4183 8.08172 20 12.5 20C14.3487 20 16.051 19.3729 17.4056 18.3199L6.18014 7.09436ZM7.59436 5.68014L18.8199 16.9056C19.8729 15.551 20.5 13.8487 20.5 12C20.5 7.58172 16.9183 4 12.5 4C10.6513 4 8.94904 4.62708 7.59436 5.68014ZM2.5 12C2.5 6.47715 6.97715 2 12.5 2C18.0228 2 22.5 6.47715 22.5 12C22.5 17.5228 18.0228 22 12.5 22C6.97715 22 2.5 17.5228 2.5 12Z" fill="#C62421"/>
</svg>
