<svg width="16" height="16" viewBox="0 0 16 16" fill="none" xmlns="http://www.w3.org/2000/svg">
<g id="Component 2">
<path id="Vector" d="M2.66667 1.33203H13.3333C13.7015 1.33203 14 1.63051 14 1.9987V14.8496C14 15.0337 13.8507 15.183 13.6667 15.183C13.6199 15.183 13.5736 15.173 13.5309 15.154L8 12.6862L2.46915 15.154C2.30103 15.229 2.10394 15.1535 2.02893 14.9854C2.00985 14.9426 2 14.8964 2 14.8496V1.9987C2 1.63051 2.29848 1.33203 2.66667 1.33203ZM12.6667 13.3084V2.66536H3.33333V13.3084L8 11.2262L12.6667 13.3084ZM8 8.9987L6.04071 10.0288L6.41491 7.84703L4.82981 6.30198L7.02033 5.98367L8 3.9987L8.97967 5.98367L11.1702 6.30198L9.58507 7.84703L9.95927 10.0288L8 8.9987Z" fill="#4876D5"/>
</g>
</svg>
