<svg width="14" height="14" viewBox="0 0 14 14" fill="none" xmlns="http://www.w3.org/2000/svg">
<path d="M2.23611 2.33317H4.85524L5.69945 4.44369L4.34327 5.34781C4.18099 5.456 4.08351 5.63813 4.08351 5.83317C4.08499 5.88779 4.08351 5.83375 4.08351 5.83375L4.08351 5.83437L4.08352 5.83567L4.08353 5.83861L4.08362 5.84581C4.08371 5.85119 4.08385 5.85772 4.0841 5.86537C4.08459 5.88066 4.08548 5.90043 4.08708 5.92438C4.09027 5.97227 4.09629 6.03701 4.1076 6.11619C4.13021 6.27444 4.17409 6.49124 4.25928 6.7468C4.43033 7.25996 4.76644 7.92439 5.42103 8.57898C6.07563 9.23358 6.74005 9.56968 7.25321 9.74074C7.50878 9.82592 7.72557 9.8698 7.88383 9.89241C7.963 9.90372 8.02774 9.90974 8.07563 9.91293C8.09959 9.91453 8.11936 9.91542 8.13465 9.91592C8.1423 9.91616 8.14883 9.91631 8.1542 9.91639L8.1614 9.91648L8.16434 9.9165L8.16565 9.9165H8.16626C8.16626 9.9165 8.23138 9.91293 8.16684 9.9165C8.38779 9.9165 8.58978 9.79167 8.68859 9.59404L9.07925 8.81273L11.6668 9.24399V11.7639C10.4354 11.942 7.1095 12.1175 4.49599 9.50402C1.88248 6.89052 2.05801 3.56464 2.23611 2.33317ZM5.29314 6.11672L6.3466 5.41441C6.80564 5.10838 6.98757 4.52264 6.78267 4.0104L5.93846 1.89988C5.76129 1.45695 5.3323 1.1665 4.85524 1.1665H2.20563C1.67567 1.1665 1.17681 1.53468 1.08981 2.1097C0.89188 3.41788 0.622469 7.28042 3.67103 10.329C6.7196 13.3775 10.5821 13.1081 11.8903 12.9102C12.4653 12.8232 12.8335 12.3243 12.8335 11.7944V9.24399C12.8335 8.67368 12.4212 8.18696 11.8586 8.0932L9.27105 7.66194C8.76584 7.57774 8.2648 7.83288 8.03575 8.29098L7.83363 8.69522C7.7701 8.67963 7.69918 8.65962 7.62214 8.63394C7.26031 8.51333 6.75806 8.2661 6.24599 7.75402C5.73392 7.24195 5.48669 6.73971 5.36608 6.37787C5.33348 6.2801 5.31002 6.19218 5.29314 6.11672Z" fill="currentColor"/>
</svg>
