<svg width="30" height="20" viewBox="0 0 30 20" fill="none" xmlns="http://www.w3.org/2000/svg">
<path fill-rule="evenodd" clip-rule="evenodd" d="M27.2857 6L6.71429 6C6.38613 6 6.13793 6.0797 6.00597 6.15667C6.00393 6.15786 6.00194 6.15904 6 6.16019L6 17.8398C6.00194 17.841 6.00393 17.8421 6.00597 17.8433C6.13793 17.9203 6.38613 18 6.71429 18L27.2857 18C27.6139 18 27.8621 17.9203 27.994 17.8433C27.9961 17.8421 27.9981 17.841 28 17.8398L28 6.16019C27.9981 6.15904 27.9961 6.15786 27.994 6.15667C27.8621 6.0797 27.6139 6 27.2857 6ZM28.0651 6.20731C28.0651 6.20731 28.0614 6.20459 28.0564 6.19864C28.0631 6.20424 28.0651 6.20731 28.0651 6.20731ZM28.0651 17.7927C28.0651 17.7927 28.0631 17.7957 28.0564 17.8014C28.0614 17.7954 28.0651 17.7927 28.0651 17.7927ZM5.93488 17.7927C5.93488 17.7927 5.93863 17.7954 5.94358 17.8014C5.93692 17.7958 5.93488 17.7927 5.93488 17.7927ZM5.93488 6.20731C5.93488 6.20731 5.93692 6.20424 5.94358 6.19864C5.93863 6.20459 5.93488 6.20731 5.93488 6.20731ZM6.71429 4L27.2857 4C27.9043 4 28.5133 4.14416 29.0018 4.42911C29.4657 4.69975 30 5.22053 30 6L30 18C30 18.7795 29.4657 19.3003 29.0018 19.5709C28.5133 19.8558 27.9043 20 27.2857 20L6.71429 20C6.09567 20 5.48672 19.8558 4.99823 19.5709C4.53429 19.3003 4 18.7795 4 18L4 6C4 5.22053 4.53429 4.69975 4.99823 4.42912C5.48672 4.14416 6.09567 4 6.71429 4Z" fill="currentColor"/>
<path fill-rule="evenodd" clip-rule="evenodd" d="M21 1C21 1.55228 20.5523 2 20 2L2 2.00001L2 16C2 16.5523 1.55228 17 0.999999 17C0.447715 17 -7.23523e-07 16.5523 -6.99382e-07 16L-8.74232e-08 2.00001C-3.91409e-08 0.895439 0.89543 8.53874e-06 2 8.58702e-06L20 -4.37113e-08C20.5523 -2.57989e-07 21 0.447715 21 1Z" fill="currentColor"/>
<path d="M19.3984 10.4675C19.1182 10.4675 18.8947 10.2443 18.7216 10.0239C18.623 9.8985 18.4882 9.79095 18.3171 9.7013C17.9703 9.51948 17.5448 9.42857 17.0407 9.42857C16.6721 9.42857 16.3497 9.47619 16.0732 9.57143C15.7995 9.66667 15.5854 9.79762 15.431 9.96429C15.2792 10.131 15.2033 10.3203 15.2033 10.5325C15.2033 10.71 15.2562 10.8626 15.3619 10.9903C15.4703 11.1158 15.6085 11.2208 15.7765 11.3052C15.9445 11.3874 16.1207 11.4556 16.3049 11.5097C16.4892 11.5617 16.6586 11.6039 16.8131 11.6364L17.6586 11.8182C17.8754 11.8636 18.1166 11.9264 18.3822 12.0065C18.6505 12.0866 18.9066 12.1959 19.1505 12.3344C19.3971 12.4708 19.6003 12.6461 19.7602 12.8604C19.9201 13.0747 20.0001 13.3377 20.0001 13.6494C20.0001 14.0087 19.8822 14.3333 19.6464 14.6234C19.4133 14.9134 19.0719 15.1439 18.622 15.3149C18.1749 15.4859 17.6315 15.5714 16.9919 15.5714C16.3957 15.5714 15.8795 15.4946 15.4432 15.3409C15.0095 15.1872 14.6681 14.9729 14.4188 14.6981C14.3051 14.5714 14.2142 14.4352 14.146 14.2897C14.0158 14.0117 14.2645 13.7403 14.5715 13.7403C14.8384 13.7403 15.0468 13.9566 15.1954 14.1783C15.2402 14.2452 15.2943 14.307 15.3578 14.3636C15.5448 14.526 15.7805 14.6472 16.0651 14.7273C16.3524 14.8052 16.6613 14.8442 16.9919 14.8442C17.3768 14.8442 17.7223 14.7944 18.0285 14.6948C18.3348 14.5931 18.5773 14.4524 18.7562 14.2727C18.935 14.0909 19.0245 13.8788 19.0245 13.6364C19.0245 13.4156 18.9472 13.2359 18.7927 13.0974C18.6383 12.9589 18.435 12.8463 18.183 12.7597C17.931 12.6732 17.6586 12.5974 17.3659 12.5325L16.3415 12.2987C15.6911 12.1494 15.1762 11.9361 14.7968 11.6591C14.4174 11.382 14.2277 11.0195 14.2277 10.5714C14.2277 10.1991 14.3537 9.87446 14.6058 9.5974C14.8605 9.31818 15.202 9.10173 15.6301 8.94805C16.061 8.79221 16.5421 8.71429 17.0732 8.71429C17.6098 8.71429 18.0868 8.79113 18.5041 8.94481C18.9215 9.09632 19.2521 9.30411 19.496 9.56818C19.6202 9.70116 19.7148 9.84319 19.7799 9.99428C19.8852 10.2387 19.6646 10.4675 19.3984 10.4675Z" fill="currentColor"/>
<path fill-rule="evenodd" clip-rule="evenodd" d="M14.5685 14.24V14.24ZM14.5661 14.2411L14.5675 14.2406ZM15.4606 8.47765C15.9538 8.29936 16.4934 8.21429 17.0732 8.21429C17.6565 8.21429 18.1933 8.29771 18.6758 8.47521C19.1499 8.64748 19.5533 8.89375 19.8623 9.2279C20.0212 9.39825 20.1491 9.58762 20.2391 9.79646C20.3754 10.1129 20.2936 10.4317 20.108 10.6481C19.9329 10.8522 19.6699 10.9675 19.3984 10.9675C19.1187 10.9675 18.8905 10.8548 18.7222 10.7302C18.5569 10.6077 18.4254 10.4564 18.3284 10.3329C18.2816 10.2733 18.2064 10.2078 18.085 10.1442C17.8273 10.0091 17.4864 9.92857 17.0407 9.92857C16.7141 9.92857 16.4491 9.97088 16.2368 10.0439C16.0213 10.119 15.8848 10.2108 15.7992 10.3025C15.7267 10.3828 15.7033 10.4537 15.7033 10.5325C15.7033 10.5999 15.7197 10.6372 15.7442 10.668C15.8036 10.7355 15.8853 10.8 15.9987 10.8573C16.1392 10.9259 16.2872 10.9833 16.4432 11.0292C16.6178 11.0784 16.7752 11.1175 16.9159 11.1471L16.9182 11.1475L17.7624 11.3291C17.9957 11.378 18.2505 11.4446 18.5258 11.5276C18.8292 11.6182 19.1192 11.7419 19.395 11.8983L19.3924 11.8969L19.1504 12.3344L19.3974 11.8996L19.395 11.8983C19.6992 12.0669 19.9569 12.2879 20.1609 12.5614C20.3955 12.8758 20.5 13.2484 20.5 13.6494C20.5 14.128 20.3397 14.5626 20.0352 14.9377L20.0361 14.9366L19.6464 14.6234L20.0344 14.9388L20.0352 14.9377C19.7324 15.314 19.3083 15.589 18.7996 15.7823L18.622 15.315L18.8006 15.782C18.2808 15.9807 17.6732 16.0714 16.9919 16.0714C16.3546 16.0714 15.7796 15.9895 15.277 15.8125C14.7839 15.6377 14.365 15.3831 14.0484 15.034L14.0466 15.0319C13.9022 14.871 13.7833 14.6942 13.6932 14.5018C13.5378 14.1702 13.615 13.8288 13.8084 13.5934C13.9916 13.3703 14.2748 13.2403 14.5715 13.2403C15.1156 13.2403 15.4552 13.6679 15.6108 13.9001C15.6304 13.9294 15.6556 13.959 15.6883 13.9884L15.6856 13.9861L15.3578 14.3636L15.6907 13.9906L15.6883 13.9884C15.8092 14.0926 15.974 14.1819 16.1983 14.2453L16.196 14.2447L16.0651 14.7273L16.2005 14.246L16.1983 14.2453C16.4378 14.3101 16.7016 14.3442 16.9919 14.3442C17.3335 14.3442 17.6251 14.3 17.8724 14.2198L17.8709 14.2203L18.0285 14.6948L17.8739 14.2193L17.8724 14.2198C18.1225 14.1365 18.2902 14.0316 18.4007 13.921L18.3997 13.9221L18.7561 14.2727L18.4018 13.92L18.4007 13.921C18.4921 13.8277 18.5244 13.7398 18.5244 13.6364C18.5244 13.5474 18.5002 13.5067 18.4589 13.4696C18.3662 13.3865 18.2265 13.3034 18.0205 13.2326C17.7883 13.1528 17.5342 13.082 17.2576 13.0206L17.2547 13.0199L16.2303 12.7862C15.5395 12.6276 14.9539 12.393 14.5019 12.0629C14.001 11.6971 13.7277 11.188 13.7277 10.5714C13.7277 10.0739 13.9007 9.62944 14.2359 9.26095C14.5555 8.91055 14.9715 8.65329 15.4606 8.47765Z" fill="currentColor"/>
<path d="M16.5715 7.5C16.5715 7.22386 16.7954 7 17.0715 7C17.3477 7 17.5715 7.22386 17.5715 7.5V16.7857C17.5715 17.0619 17.3477 17.2857 17.0715 17.2857C16.7954 17.2857 16.5715 17.0619 16.5715 16.7857V7.5Z" fill="black"/>
</svg>
