<svg width="16" height="16" viewBox="0 0 16 16" fill="none" xmlns="http://www.w3.org/2000/svg">
<path d="M4.86094 13.883L2.2539 14.4623C1.8252 14.5576 1.44276 14.1751 1.53803 13.7464L2.11737 11.1394C1.61712 10.2039 1.3335 9.13516 1.3335 8.00016C1.3335 4.31826 4.31826 1.3335 8.00016 1.3335C11.682 1.3335 14.6668 4.31826 14.6668 8.00016C14.6668 11.682 11.682 14.6668 8.00016 14.6668C6.86516 14.6668 5.79643 14.3832 4.86094 13.883ZM4.83695 12.5224C4.97699 12.4913 5.12355 12.5114 5.25006 12.579L5.48968 12.7072C6.25515 13.1165 7.1105 13.3335 8.00016 13.3335C10.9457 13.3335 13.3335 10.9457 13.3335 8.00016C13.3335 5.05464 10.9457 2.66683 8.00016 2.66683C5.05464 2.66683 2.66683 5.05464 2.66683 8.00016C2.66683 8.88983 2.88382 9.74516 3.29316 10.5106L3.42129 10.7502C3.48894 10.8767 3.50903 11.0233 3.47791 11.1633L3.29414 11.9903C3.19887 12.419 3.58131 12.8014 4.01001 12.7062L4.83695 12.5224Z" fill="currentColor"/>
</svg>
