<svg width="22" height="19" viewBox="0 0 22 19" fill="none" xmlns="http://www.w3.org/2000/svg">
  <path d="M9.0014 11.6759C9.0011 11.6553 9.001 11.6347 9.001 11.6141C9.001 9.1058 11.0175 6.99587 13.7539 6.38116C13.3904 4.07896 10.9602 2.2002 7.90098 2.2002C4.58037 2.2002 2.00098 4.41368 2.00098 6.97954C2.00098 7.94889 2.36131 8.88029 3.04082 9.6783C3.0728 9.71589 3.12443 9.772 3.19342 9.8429C3.78537 10.4519 4.13709 11.2459 4.19546 12.0807C4.90857 11.6685 5.74285 11.5125 6.55832 11.6394C6.72416 11.6652 6.85986 11.685 6.96345 11.6985C7.27111 11.7386 7.58419 11.7589 7.90098 11.7589C8.27825 11.7589 8.64595 11.7303 9.0014 11.6759ZM9.4581 13.6272C8.95467 13.7136 8.43399 13.7589 7.90098 13.7589C7.49441 13.7589 7.09502 13.7325 6.70499 13.6817C6.58312 13.6658 6.4317 13.6438 6.25073 13.6156C5.87693 13.5575 5.49436 13.6324 5.1713 13.827L3.26653 14.9747C3.12052 15.0649 2.94891 15.1059 2.77733 15.0918C2.33814 15.0557 2.01178 14.6746 2.04837 14.2408L2.19859 12.4599C2.23664 12.0089 2.07664 11.5634 1.75931 11.237C1.66182 11.1367 1.5814 11.0493 1.51802 10.9749C0.564056 9.8545 0.000976562 8.4734 0.000976562 6.97954C0.000976562 3.23541 3.53793 0.200195 7.90098 0.200195C11.9601 0.200195 15.3041 2.82724 15.7504 6.20813C19.1225 6.36161 21.801 8.7232 21.801 11.6141C21.801 12.8071 21.3448 13.9099 20.572 14.8047C20.5206 14.8641 20.4555 14.9339 20.3765 15.014C20.1194 15.2747 19.9898 15.6304 20.0206 15.9906L20.1423 17.4127C20.172 17.7592 19.9076 18.0635 19.5518 18.0924C19.4128 18.1036 19.2738 18.0708 19.1555 17.9988L17.6124 17.0823C17.3506 16.9269 17.0407 16.867 16.7379 16.9135C16.5913 16.936 16.4686 16.9536 16.3699 16.9663C16.0539 17.0069 15.7303 17.0279 15.401 17.0279C12.7074 17.0279 10.4025 15.6203 9.4581 13.6272ZM16.4346 14.9366C17.0019 14.8496 17.5793 14.9112 18.1105 15.1113C18.2492 14.5506 18.5373 14.0307 18.9524 13.6097C19.0027 13.5587 19.0388 13.5201 19.0584 13.4973C19.5467 12.9321 19.801 12.2841 19.801 11.6141C19.801 9.8097 17.8983 8.2002 15.401 8.2002C12.9037 8.2002 11.001 9.8097 11.001 11.6141C11.001 13.4184 12.9037 15.0279 15.401 15.0279C15.6424 15.0279 15.8809 15.0127 16.115 14.9826C16.1957 14.9722 16.3029 14.9568 16.4346 14.9366Z" fill="currentColor"/>
</svg>
