<svg width="20" height="20" viewBox="0 0 20 20" fill="none" xmlns="http://www.w3.org/2000/svg">
<path d="M9.99984 1.66406C5.39984 1.66406 1.6665 5.3974 1.6665 9.9974C1.6665 14.5974 5.39984 18.3307 9.99984 18.3307C14.5998 18.3307 18.3332 14.5974 18.3332 9.9974C18.3332 5.3974 14.5998 1.66406 9.99984 1.66406ZM9.99984 16.6641C6.32484 16.6641 3.33317 13.6724 3.33317 9.9974C3.33317 6.3224 6.32484 3.33073 9.99984 3.33073C13.6748 3.33073 16.6665 6.3224 16.6665 9.9974C16.6665 13.6724 13.6748 16.6641 9.99984 16.6641ZM13.2332 6.90573L8.33317 11.8057L6.7665 10.2391C6.61069 10.0832 6.39936 9.99571 6.179 9.99571C5.95865 9.99571 5.74732 10.0832 5.5915 10.2391C5.43569 10.3949 5.34815 10.6062 5.34815 10.8266C5.34815 11.0469 5.43569 11.2582 5.5915 11.4141L7.74984 13.5724C8.07484 13.8974 8.59984 13.8974 8.92484 13.5724L14.4165 8.08073C14.4938 8.00363 14.555 7.91206 14.5969 7.81125C14.6387 7.71044 14.6602 7.60237 14.6602 7.49323C14.6602 7.38409 14.6387 7.27602 14.5969 7.17521C14.555 7.0744 14.4938 6.98282 14.4165 6.90573C14.0915 6.58073 13.5582 6.58073 13.2332 6.90573Z" fill="#0146C5"/>
</svg>
