<svg width="20" height="20" viewBox="0 0 20 20" fill="none" xmlns="http://www.w3.org/2000/svg">
<g id="circle-help">
<g id="Icon">
<path d="M9.99935 3.33366C6.31745 3.33366 3.33268 6.31843 3.33268 10.0003C3.33268 13.6822 6.31745 16.667 9.99935 16.667C13.6812 16.667 16.666 13.6822 16.666 10.0003C16.666 6.31843 13.6812 3.33366 9.99935 3.33366ZM1.66602 10.0003C1.66602 5.39795 5.39698 1.66699 9.99935 1.66699C14.6017 1.66699 18.3327 5.39795 18.3327 10.0003C18.3327 14.6027 14.6017 18.3337 9.99935 18.3337C5.39698 18.3337 1.66602 14.6027 1.66602 10.0003Z" fill="#1F2933"/>
<path d="M9.99935 11.667C9.53911 11.667 9.16602 11.2939 9.16602 10.8337V10.0003C9.16602 9.54009 9.53911 9.16699 9.99935 9.16699C10.4596 9.16699 10.8327 9.54009 10.8327 10.0003V10.8337C10.8327 11.2939 10.4596 11.667 9.99935 11.667Z" fill="#1F2933"/>
<path d="M8.74935 13.7503C8.74935 13.06 9.30899 12.5003 9.99935 12.5003C10.6897 12.5003 11.2493 13.06 11.2493 13.7503C11.2493 14.4407 10.6897 15.0003 9.99935 15.0003C9.30899 15.0003 8.74935 14.4407 8.74935 13.7503Z" fill="#1F2933"/>
<path d="M10.3243 6.5098C9.52677 6.47182 8.85801 6.91733 8.73801 7.63733C8.66235 8.0913 8.23299 8.39799 7.77902 8.32232C7.32504 8.24666 7.01836 7.81731 7.09402 7.36333C7.39069 5.58333 9.0136 4.77883 10.4036 4.84502C11.1156 4.87893 11.8473 5.13448 12.4108 5.66098C12.9882 6.20055 13.3327 6.97346 13.3327 7.91699C13.3327 8.99308 12.9093 9.79109 12.1803 10.277C11.5111 10.7232 10.6906 10.8337 9.99935 10.8337C9.53911 10.8337 9.16602 10.4606 9.16602 10.0003C9.16602 9.54009 9.53911 9.16699 9.99935 9.16699C10.5581 9.16699 10.9876 9.06909 11.2558 8.89029C11.4644 8.75123 11.666 8.50757 11.666 7.91699C11.666 7.40219 11.4897 7.08135 11.2728 6.87874C11.042 6.66305 10.706 6.52798 10.3243 6.5098Z" fill="#1F2933"/>
</g>
</g>
</svg>
