<svg width="28" height="28" viewBox="0 0 28 28" fill="none" xmlns="http://www.w3.org/2000/svg">
<path d="M13.5142 13.0273V15.4579" stroke="currentColor" stroke-width="2" stroke-linecap="round" stroke-linejoin="round"/>
<path d="M13.5142 15.457L15.7017 17.6445" stroke="currentColor" stroke-width="2" stroke-linecap="round" stroke-linejoin="round"/>
<path d="M13.5142 15.457L11.3267 17.6445" stroke="currentColor" stroke-width="2" stroke-linecap="round" stroke-linejoin="round"/>
<path d="M11.3267 4.51953C11.3267 5.09969 11.5571 5.65609 11.9674 6.06633C12.3776 6.47656 12.934 6.70703 13.5142 6.70703C14.0943 6.70703 14.6507 6.47656 15.061 6.06633C15.4712 5.65609 15.7017 5.09969 15.7017 4.51953C15.7017 3.93937 15.4712 3.38297 15.061 2.97274C14.6507 2.5625 14.0943 2.33203 13.5142 2.33203C12.934 2.33203 12.3776 2.5625 11.9674 2.97274C11.5571 3.38297 11.3267 3.93937 11.3267 4.51953Z" stroke="currentColor" stroke-width="2" stroke-linecap="round" stroke-linejoin="round"/>
<path d="M17.8892 11.083C17.6413 10.1108 17.0766 9.2489 16.2844 8.63333C15.4921 8.01776 14.5174 7.68359 13.5142 7.68359C12.5109 7.68359 11.5362 8.01776 10.7439 8.63333C9.9517 9.2489 9.38706 10.1108 9.13916 11.083H17.8892Z" stroke="currentColor" stroke-width="2" stroke-linecap="round" stroke-linejoin="round"/>
<path d="M4.521 18.1289C4.521 18.4162 4.57758 18.7006 4.68751 18.966C4.79744 19.2314 4.95857 19.4726 5.1617 19.6757C5.36483 19.8788 5.60598 20.04 5.87138 20.1499C6.13678 20.2598 6.42123 20.3164 6.7085 20.3164C6.99576 20.3164 7.28022 20.2598 7.54562 20.1499C7.81102 20.04 8.05216 19.8788 8.25529 19.6757C8.45842 19.4726 8.61955 19.2314 8.72948 18.966C8.83941 18.7006 8.896 18.4162 8.896 18.1289C8.896 17.8416 8.83941 17.5572 8.72948 17.2918C8.61955 17.0264 8.45842 16.7852 8.25529 16.5821C8.05216 16.379 7.81102 16.2179 7.54562 16.1079C7.28022 15.998 6.99576 15.9414 6.7085 15.9414C6.42123 15.9414 6.13678 15.998 5.87138 16.1079C5.60598 16.2179 5.36483 16.379 5.1617 16.5821C4.95857 16.7852 4.79744 17.0264 4.68751 17.2918C4.57758 17.5572 4.521 17.8416 4.521 18.1289Z" stroke="currentColor" stroke-width="2" stroke-linecap="round" stroke-linejoin="round"/>
<path d="M11.0835 24.6924C10.8356 23.7202 10.271 22.8583 9.47871 22.2427C8.68648 21.6271 7.71178 21.293 6.7085 21.293C5.70522 21.293 4.73052 21.6271 3.93828 22.2427C3.14604 22.8583 2.5814 23.7202 2.3335 24.6924H11.0835Z" stroke="currentColor" stroke-width="2" stroke-linecap="round" stroke-linejoin="round"/>
<path d="M18.1318 18.1289C18.1318 18.7091 18.3623 19.2655 18.7725 19.6757C19.1828 20.0859 19.7392 20.3164 20.3193 20.3164C20.8995 20.3164 21.4559 20.0859 21.8661 19.6757C22.2764 19.2655 22.5068 18.7091 22.5068 18.1289C22.5068 17.5487 22.2764 16.9923 21.8661 16.5821C21.4559 16.1719 20.8995 15.9414 20.3193 15.9414C19.7392 15.9414 19.1828 16.1719 18.7725 16.5821C18.3623 16.9923 18.1318 17.5487 18.1318 18.1289Z" stroke="currentColor" stroke-width="2" stroke-linecap="round" stroke-linejoin="round"/>
<path d="M24.6943 24.6924C24.4464 23.7202 23.8818 22.8583 23.0896 22.2427C22.2973 21.6271 21.3226 21.293 20.3193 21.293C19.3161 21.293 18.3414 21.6271 17.5491 22.2427C16.7569 22.8583 16.1922 23.7202 15.9443 24.6924H24.6943Z" stroke="currentColor" stroke-width="2" stroke-linecap="round" stroke-linejoin="round"/>
</svg>
