<svg width="28" height="28" viewBox="0 0 28 28" fill="none" xmlns="http://www.w3.org/2000/svg">
<path d="M2.3335 25.2984C7.66895 21.6034 9.79073 11.3485 9.05923 2.90633C9.05252 2.83329 9.06116 2.75967 9.08458 2.69016C9.108 2.62066 9.14569 2.55683 9.19524 2.50275C9.24478 2.44868 9.30508 2.40556 9.37227 2.37616C9.43946 2.34676 9.51206 2.33173 9.5854 2.33204H20.3141C20.4479 2.33149 20.5771 2.38118 20.6761 2.47127C20.7751 2.56136 20.8367 2.68532 20.8488 2.81863C21.6027 11.2769 19.4852 21.5906 14.1316 25.2984H2.3335Z" stroke="currentColor" stroke-width="2" stroke-linecap="round" stroke-linejoin="round"/>
<path d="M23.6614 4.98438L25.4645 5.45707C25.5915 5.48875 25.7024 5.5659 25.7763 5.67391C25.8502 5.78192 25.882 5.91329 25.8655 6.04312C24.8324 14.1185 20.082 23.1467 14.3369 25.2931" stroke="currentColor" stroke-width="2" stroke-linecap="round" stroke-linejoin="round"/>
<path d="M25.8697 15.6875L26.6183 16.5078C23.5713 20.7683 19.1747 23.875 14.1411 25.3243" stroke="currentColor" stroke-width="2" stroke-linecap="round" stroke-linejoin="round"/>
</svg>
