<svg width="20" height="20" viewBox="0 0 20 20" fill="none" xmlns="http://www.w3.org/2000/svg">
<path d="M1.66675 3.33366C1.66675 2.41318 2.41294 1.66699 3.33341 1.66699H11.6667C12.5872 1.66699 13.3334 2.41318 13.3334 3.33366V6.66699H16.6667C17.5872 6.66699 18.3334 7.41318 18.3334 8.33366V16.667C18.3334 17.5875 17.5872 18.3337 16.6667 18.3337H8.33342C7.41294 18.3337 6.66675 17.5875 6.66675 16.667V13.3337H3.33341C2.41294 13.3337 1.66675 12.5875 1.66675 11.667V3.33366ZM8.33342 13.3337V16.667H16.6667V8.33366H13.3334V11.667C13.3334 12.5875 12.5872 13.3337 11.6667 13.3337H8.33342ZM11.6667 11.667V3.33366L3.33341 3.33366V11.667H11.6667Z" fill="currentColor"/>
</svg>
