<svg width="28" height="28" viewBox="0 0 28 28" fill="none" xmlns="http://www.w3.org/2000/svg">
<path d="M11.0078 17.8524L17.7711 11.0469Z" fill="currentColor"/>
<path d="M11.0078 17.8524L17.7711 11.0469" stroke="currentColor" stroke-width="2" stroke-linecap="round" stroke-linejoin="round"/>
<path d="M10.585 11.8971C10.585 12.2356 10.7186 12.5601 10.9564 12.7994C11.1942 13.0387 11.5168 13.1732 11.8531 13.1732C12.1894 13.1732 12.512 13.0387 12.7498 12.7994C12.9876 12.5601 13.1212 12.2356 13.1212 11.8971C13.1212 11.5587 12.9876 11.2341 12.7498 10.9948C12.512 10.7555 12.1894 10.6211 11.8531 10.6211C11.5168 10.6211 11.1942 10.7555 10.9564 10.9948C10.7186 11.2341 10.585 11.5587 10.585 11.8971Z" stroke="currentColor" stroke-width="2" stroke-linecap="round" stroke-linejoin="round"/>
<path d="M15.6572 17.0026C15.6572 17.341 15.7908 17.6656 16.0286 17.9049C16.2665 18.1442 16.589 18.2786 16.9253 18.2786C17.2617 18.2786 17.5842 18.1442 17.822 17.9049C18.0599 17.6656 18.1935 17.341 18.1935 17.0026C18.1935 16.6642 18.0599 16.3396 17.822 16.1003C17.5842 15.861 17.2617 15.7266 16.9253 15.7266C16.589 15.7266 16.2665 15.861 16.0286 16.1003C15.7908 16.3396 15.6572 16.6642 15.6572 17.0026Z" stroke="currentColor" stroke-width="2" stroke-linecap="round" stroke-linejoin="round"/>
<path d="M4.66699 14.451C4.66699 15.7357 4.91846 17.0078 5.40705 18.1947C5.89564 19.3817 6.61177 20.4601 7.51456 21.3686C8.41736 22.277 9.48913 22.9976 10.6687 23.4893C11.8482 23.9809 13.1125 24.2339 14.3892 24.2339C15.666 24.2339 16.9302 23.9809 18.1097 23.4893C19.2893 22.9976 20.3611 22.277 21.2639 21.3686C22.1667 20.4601 22.8828 19.3817 23.3714 18.1947C23.86 17.0078 24.1114 15.7357 24.1114 14.451C24.1114 13.1662 23.86 11.8941 23.3714 10.7072C22.8828 9.52024 22.1667 8.44177 21.2639 7.53334C20.3611 6.6249 19.2893 5.9043 18.1097 5.41265C16.9302 4.92101 15.666 4.66797 14.3892 4.66797C13.1125 4.66797 11.8482 4.92101 10.6687 5.41265C9.48913 5.9043 8.41736 6.6249 7.51456 7.53334C6.61177 8.44177 5.89564 9.52024 5.40705 10.7072C4.91846 11.8941 4.66699 13.1662 4.66699 14.451Z" stroke="currentColor" stroke-width="2" stroke-linecap="round" stroke-linejoin="round"/>
</svg>
