<svg width="20" height="20" viewBox="0 0 20 20" fill="none" xmlns="http://www.w3.org/2000/svg">
<path d="M3.33203 3.33268C3.33203 2.41221 4.07822 1.66602 4.9987 1.66602H11.6654C11.8864 1.66602 12.0983 1.75381 12.2546 1.91009L16.4213 6.07676C16.5776 6.23304 16.6654 6.445 16.6654 6.66602V16.666C16.6654 17.5865 15.9192 18.3327 14.9987 18.3327H4.9987C4.07822 18.3327 3.33203 17.5865 3.33203 16.666V3.33268ZM14.6535 6.66602L11.6654 3.67786V6.66602H14.6535ZM9.9987 3.33268L4.9987 3.33268V16.666H14.9987V8.33268H10.832C10.3718 8.33268 9.9987 7.95959 9.9987 7.49935V3.33268Z" fill="#959595"/>
</svg>
