<svg width="10" height="18" viewBox="0 0 10 18" fill="none" xmlns="http://www.w3.org/2000/svg">
<path d="M8.33333 6.08268H10C10 3.71852 7.70417 2.64018 5.83333 2.39185V0.666016H4.16667V2.39185C2.29583 2.64018 0 3.71852 0 6.08268C0 8.33768 2.22167 9.51018 4.16667 9.77435V13.916C2.96 13.7068 1.66667 13.0627 1.66667 11.916H0C0 14.0735 2.02083 15.3485 4.16667 15.6127V17.3327H5.83333V15.6077C7.70417 15.3594 10 14.2802 10 11.916C10 9.55185 7.70417 8.47352 5.83333 8.22518V4.08268C6.94167 4.28185 8.33333 4.86685 8.33333 6.08268ZM1.66667 6.08268C1.66667 4.86685 3.05833 4.28185 4.16667 4.08268V8.08185C3.02417 7.87102 1.66667 7.24685 1.66667 6.08268ZM8.33333 11.916C8.33333 13.1318 6.94167 13.7168 5.83333 13.916V9.91602C6.94167 10.1152 8.33333 10.7002 8.33333 11.916Z" fill="currentColor"/>
</svg>
