<svg width="20" height="20" viewBox="0 0 20 20" fill="currentColor" xmlns="http://www.w3.org/2000/svg">
<g id="download">
<path id="Icon" d="M10.0007 1.66699C10.4609 1.66699 10.834 2.04009 10.834 2.50033V11.3218L12.7447 9.41107C13.0702 9.08563 13.5978 9.08563 13.9232 9.41107C14.2487 9.73651 14.2487 10.2641 13.9232 10.5896L10.5899 13.9229C10.2645 14.2484 9.73683 14.2484 9.4114 13.9229L6.07806 10.5896C5.75262 10.2641 5.75262 9.73651 6.07806 9.41107C6.4035 9.08563 6.93114 9.08563 7.25657 9.41107L9.16732 11.3218V2.50033C9.16732 2.04009 9.54041 1.66699 10.0007 1.66699ZM4.16732 14.167C4.62756 14.167 5.00065 14.5401 5.00065 15.0003V16.667H15.0007V15.0003C15.0007 14.5401 15.3737 14.167 15.834 14.167C16.2942 14.167 16.6673 14.5401 16.6673 15.0003V16.667C16.6673 17.5875 15.9211 18.3337 15.0007 18.3337H5.00065C4.08018 18.3337 3.33398 17.5875 3.33398 16.667V15.0003C3.33398 14.5401 3.70708 14.167 4.16732 14.167Z" fill="currentColor"/>
</g>
</svg>
