<svg width="20" height="20" viewBox="0 0 20 20" fill="none" xmlns="http://www.w3.org/2000/svg">
<g id="eye">
<g id="Icon">
<path d="M12.4998 9.99984C12.4998 11.3805 11.3805 12.4998 9.99984 12.4998C8.61913 12.4998 7.49984 11.3805 7.49984 9.99984C7.49984 8.61913 8.61913 7.49984 9.99984 7.49984C11.3805 7.49984 12.4998 8.61913 12.4998 9.99984Z" fill="#4876D5"/>
<path d="M18.2452 9.62716C16.4467 6.03013 13.2524 4.1665 9.99984 4.1665C6.74723 4.1665 3.553 6.03013 1.75448 9.62716C1.63718 9.86177 1.63718 10.1379 1.75448 10.3725C3.553 13.9695 6.74723 15.8332 9.99984 15.8332C13.2524 15.8332 16.4467 13.9695 18.2452 10.3725C18.3625 10.1379 18.3625 9.86177 18.2452 9.62716ZM9.99984 14.1665C7.52585 14.1665 4.99822 12.8159 3.44122 9.99984C4.99822 7.18382 7.52585 5.83317 9.99984 5.83317C12.4738 5.83317 15.0015 7.18382 16.5585 9.99984C15.0015 12.8159 12.4738 14.1665 9.99984 14.1665Z" fill="#4876D5"/>
</g>
</g>
</svg>
