<svg width="24" height="24" viewBox="0 0 24 24" fill="none" xmlns="http://www.w3.org/2000/svg">
<rect width="24" height="24" rx="12" fill="#F7F8FA"/>
<path d="M6.66699 6.66671C6.66699 5.93033 7.26395 5.33337 8.00033 5.33337H13.3337C13.5105 5.33337 13.68 5.40361 13.8051 5.52864L17.1384 8.86197C17.2634 8.98699 17.3337 9.15656 17.3337 9.33337V17.3334C17.3337 18.0698 16.7367 18.6667 16.0003 18.6667H8.00033C7.26395 18.6667 6.66699 18.0698 6.66699 17.3334V6.66671ZM15.7242 9.33337L13.3337 6.94285V9.33337H15.7242ZM12.0003 6.66671L8.00033 6.66671V17.3334H16.0003V10.6667H12.667C12.2988 10.6667 12.0003 10.3682 12.0003 10V6.66671Z" fill="#6E83C2"/>
</svg>
