<svg width="20" height="20" viewBox="0 0 20 20" fill="none" xmlns="http://www.w3.org/2000/svg">
<path d="M3.33337 3.33317C3.33337 2.4127 4.07957 1.6665 5.00004 1.6665H11.6667C11.8877 1.6665 12.0997 1.7543 12.256 1.91058L16.4226 6.07725C16.5789 6.23353 16.6667 6.44549 16.6667 6.6665V16.6665C16.6667 17.587 15.9205 18.3332 15 18.3332H5.00004C4.07957 18.3332 3.33337 17.587 3.33337 16.6665V3.33317ZM14.6549 6.6665L11.6667 3.67835V6.6665H14.6549ZM10 3.33317L5.00004 3.33317V16.6665H15V8.33317H10.8334C10.3731 8.33317 10 7.96007 10 7.49984V3.33317Z" fill="currentColor"/>
</svg>
