<svg width="24" height="24" viewBox="0 0 24 24" fill="none" xmlns="http://www.w3.org/2000/svg">
<path d="M21.8031 12.2395C21.8031 11.5641 21.7377 10.867 21.6288 10.2134H12.1953V14.0696H17.5983C17.3804 15.3114 16.6615 16.4007 15.594 17.0978L18.8183 19.6033C20.7138 17.8386 21.8031 15.2678 21.8031 12.2395Z" fill="#4280EF"/>
<path d="M12.1951 21.9996C14.8966 21.9996 17.1623 21.1064 18.8181 19.5814L15.5937 17.0977C14.7005 17.7077 13.5458 18.0563 12.1951 18.0563C9.58072 18.0563 7.3803 16.2916 6.57421 13.9387L3.2627 16.4877C4.96203 19.8646 8.40426 21.9996 12.1951 21.9996Z" fill="#34A353"/>
<path d="M6.57477 13.9174C6.16083 12.6756 6.16083 11.3248 6.57477 10.083L3.26325 7.51221C1.84714 10.3444 1.84714 13.6777 3.26325 16.4882L6.57477 13.9174Z" fill="#F6B704"/>
<path d="M12.1951 5.96524C13.6112 5.94346 15.0055 6.48811 16.0295 7.4685L18.8835 4.59271C17.0752 2.89337 14.6787 1.97835 12.1951 2.00014C8.40426 2.00014 4.96203 4.13519 3.2627 7.51207L6.57421 10.0829C7.3803 7.70814 9.58072 5.96524 12.1951 5.96524Z" fill="#E54335"/>
</svg>
