<svg width="24" height="24" viewBox="0 0 24 24" fill="none" xmlns="http://www.w3.org/2000/svg">
<path d="M17.6255 4.501C17.2362 4.50045 16.8517 4.58727 16.5005 4.75506V4.126C16.5007 3.50036 16.2775 2.89521 15.871 2.41959C15.4645 1.94397 14.9016 1.62917 14.2835 1.53192C13.6655 1.43466 13.033 1.56134 12.5001 1.88914C11.9672 2.21693 11.5689 2.72428 11.377 3.31975C10.9773 3.10293 10.5281 2.99367 10.0734 3.00269C9.6187 3.01172 9.17417 3.13871 8.78334 3.37122C8.39251 3.60373 8.06879 3.93379 7.8439 4.32906C7.61901 4.72433 7.50066 5.17124 7.50046 5.626V11.626L7.14233 11.0513C6.79449 10.451 6.22314 10.0129 5.55318 9.83258C4.88322 9.65231 4.16914 9.74459 3.56702 10.0893C2.9649 10.4339 2.52372 11.003 2.3399 11.6719C2.15609 12.3409 2.2446 13.0555 2.58608 13.6594C4.08608 16.8254 5.29827 19.0707 6.68483 20.4741C8.08546 21.8954 9.67546 22.501 12.0005 22.501C14.1877 22.4985 16.2847 21.6285 17.8313 20.0819C19.378 18.5353 20.248 16.4383 20.2505 14.251V7.126C20.2505 6.42981 19.9739 5.76213 19.4816 5.26985C18.9893 4.77756 18.3217 4.501 17.6255 4.501ZM18.7505 14.251C18.7485 16.0406 18.0367 17.7563 16.7712 19.0218C15.5058 20.2872 13.7901 20.999 12.0005 21.001C10.0898 21.001 8.85889 20.5435 7.75077 19.4213C6.51046 18.1641 5.36858 16.0323 3.92858 12.9929C3.9202 12.9743 3.91081 12.9561 3.90046 12.9385C3.75127 12.68 3.71087 12.3729 3.78814 12.0847C3.86541 11.7964 4.05403 11.5507 4.31249 11.4015C4.57095 11.2523 4.87809 11.2119 5.16634 11.2892C5.45459 11.3664 5.70034 11.555 5.84952 11.8135C5.85341 11.821 5.85779 11.8282 5.86264 11.8351L7.61296 14.6476C7.69894 14.7863 7.82784 14.8932 7.98009 14.952C8.13234 15.0109 8.29962 15.0185 8.45656 14.9736C8.6135 14.9287 8.75153 14.8339 8.84969 14.7035C8.94784 14.5731 9.00078 14.4142 9.00046 14.251V5.626C9.00046 5.32763 9.11898 5.04148 9.32996 4.83051C9.54094 4.61953 9.82709 4.501 10.1255 4.501C10.4238 4.501 10.71 4.61953 10.921 4.83051C11.1319 5.04148 11.2505 5.32763 11.2505 5.626V11.251C11.2505 11.4499 11.3295 11.6407 11.4701 11.7813C11.6108 11.922 11.8015 12.001 12.0005 12.001C12.1994 12.001 12.3901 11.922 12.5308 11.7813C12.6714 11.6407 12.7505 11.4499 12.7505 11.251V4.126C12.7505 3.82763 12.869 3.54148 13.08 3.33051C13.2909 3.11953 13.5771 3.001 13.8755 3.001C14.1738 3.001 14.46 3.11953 14.671 3.33051C14.8819 3.54148 15.0005 3.82763 15.0005 4.126V11.251C15.0005 11.4499 15.0795 11.6407 15.2201 11.7813C15.3608 11.922 15.5515 12.001 15.7505 12.001C15.9494 12.001 16.1401 11.922 16.2808 11.7813C16.4214 11.6407 16.5005 11.4499 16.5005 11.251V7.126C16.5005 6.82763 16.619 6.54148 16.83 6.33051C17.0409 6.11953 17.3271 6.001 17.6255 6.001C17.9238 6.001 18.21 6.11953 18.421 6.33051C18.6319 6.54148 18.7505 6.82763 18.7505 7.126V14.251Z" fill="#0146C5"/>
</svg>
