<svg width="20" height="20" viewBox="0 0 20 20" fill="none" xmlns="http://www.w3.org/2000/svg">
<path d="M9.16797 14.1673L10.8346 15.834C10.9988 15.9981 11.1937 16.1284 11.4081 16.2172C11.6226 16.306 11.8525 16.3518 12.0846 16.3518C12.3168 16.3518 12.5467 16.306 12.7611 16.2172C12.9756 16.1284 13.1705 15.9981 13.3346 15.834C13.4988 15.6698 13.629 15.475 13.7178 15.2605C13.8067 15.046 13.8524 14.8161 13.8524 14.584C13.8524 14.3518 13.8067 14.122 13.7178 13.9075C13.629 13.693 13.4988 13.4981 13.3346 13.334" stroke="#959595" stroke-width="2" stroke-linecap="round" stroke-linejoin="round"/>
<path d="M11.6688 11.6671L13.7521 13.7504C14.0837 14.0819 14.5333 14.2682 15.0021 14.2682C15.471 14.2682 15.9206 14.0819 16.2521 13.7504C16.5837 13.4189 16.7699 12.9693 16.7699 12.5004C16.7699 12.0316 16.5837 11.5819 16.2521 11.2504L13.0188 8.01709C12.5501 7.54892 11.9146 7.28595 11.2521 7.28595C10.5896 7.28595 9.95423 7.54892 9.48548 8.01709L8.75214 8.75042C8.42062 9.08194 7.97098 9.26819 7.50214 9.26819C7.0333 9.26819 6.58366 9.08194 6.25214 8.75042C5.92062 8.4189 5.73438 7.96926 5.73438 7.50042C5.73438 7.03158 5.92062 6.58194 6.25214 6.25042L8.59381 3.90875C9.35401 3.15054 10.3454 2.66755 11.411 2.53623C12.4766 2.40491 13.5556 2.63278 14.4771 3.18375L14.8688 3.41709C15.2236 3.63124 15.6455 3.70552 16.0521 3.62542L17.5021 3.33375" stroke="#959595" stroke-width="2" stroke-linecap="round" stroke-linejoin="round"/>
<path d="M18.4972 2.40946L18.4067 1.41357L16.4149 1.59464L16.5054 2.59054L18.4972 2.40946ZM18.3346 11.6667V12.6667C18.6156 12.6667 18.8836 12.5485 19.0731 12.341C19.2625 12.1335 19.356 11.8559 19.3305 11.5761L18.3346 11.6667ZM16.668 10.6667C16.1157 10.6667 15.668 11.1144 15.668 11.6667C15.668 12.219 16.1157 12.6667 16.668 12.6667V10.6667ZM3.4972 2.59054L3.58773 1.59464L1.59594 1.41357L1.50541 2.40946L3.4972 2.59054ZM1.66797 11.6667L0.672076 11.5761C0.645206 11.8717 0.751007 12.1639 0.960862 12.3738L1.66797 11.6667ZM10.2917 13.8762C9.90122 13.4857 9.26805 13.4857 8.87753 13.8762C8.487 14.2668 8.487 14.8999 8.87753 15.2904L10.2917 13.8762ZM2.5013 2.33333C1.94902 2.33333 1.5013 2.78105 1.5013 3.33333C1.5013 3.88562 1.94902 4.33333 2.5013 4.33333V2.33333ZM9.16797 4.33333C9.72025 4.33333 10.168 3.88562 10.168 3.33333C10.168 2.78105 9.72025 2.33333 9.16797 2.33333V4.33333ZM16.5054 2.59054L17.3387 11.7572L19.3305 11.5761L18.4972 2.40946L16.5054 2.59054ZM18.3346 10.6667H16.668V12.6667H18.3346V10.6667ZM1.50541 2.40946L0.672076 11.5761L2.66386 11.7572L3.4972 2.59054L1.50541 2.40946ZM0.960862 12.3738L6.37753 17.7904L7.79174 16.3762L2.37508 10.9596L0.960862 12.3738ZM6.37753 17.7904C6.89659 18.3095 7.60058 18.6011 8.33464 18.6011V16.6011C8.13101 16.6011 7.93573 16.5202 7.79174 16.3762L6.37753 17.7904ZM8.33464 18.6011C9.06869 18.6011 9.77269 18.3095 10.2917 17.7904L8.87753 16.3762C8.73354 16.5202 8.53826 16.6011 8.33464 16.6011V18.6011ZM10.2917 17.7904C10.8108 17.2714 11.1024 16.5674 11.1024 15.8333H9.1024C9.1024 16.037 9.02151 16.2322 8.87753 16.3762L10.2917 17.7904ZM11.1024 15.8333C11.1024 15.0993 10.8108 14.3953 10.2917 13.8762L8.87753 15.2904C9.02151 15.4344 9.1024 15.6297 9.1024 15.8333H11.1024ZM2.5013 4.33333H9.16797V2.33333H2.5013V4.33333Z" fill="#959595"/>
</svg>
