<svg width="28" height="28" viewBox="0 0 28 28" fill="none" xmlns="http://www.w3.org/2000/svg">
<path d="M13.9997 5.28225C11.2512 2.81971 7.02447 2.90904 4.38326 5.55025C1.64959 8.28392 1.64959 12.7161 4.38326 15.4497L12.3498 23.4162C13.261 24.3275 14.7384 24.3275 15.6496 23.4162L23.6161 15.4497C26.3498 12.7161 26.3498 8.28392 23.6161 5.55025C20.9749 2.90904 16.7481 2.81971 13.9997 5.28225ZM12.6328 7.20017L13.1747 7.74205C13.6303 8.19766 14.369 8.19766 14.8246 7.74205L15.3665 7.20017C17.189 5.37772 20.1437 5.37772 21.9662 7.20017C23.7886 9.02261 23.7886 11.9774 21.9662 13.7998L13.9997 21.7663L6.03318 13.7998C4.21073 11.9774 4.21073 9.02261 6.03318 7.20017C7.85562 5.37772 10.8104 5.37772 12.6328 7.20017Z" fill="#0146C5"/>
</svg>
