<svg width="16" height="16" viewBox="0 0 16 16" fill="none" xmlns="http://www.w3.org/2000/svg">
<path d="M14.2859 3.45432L12.3449 5.3958H10.6041V3.65508L12.5451 1.7136C11.8336 1.36668 11.031 1.25238 10.2509 1.3869C9.47087 1.52142 8.75291 1.89794 8.19873 2.46313C7.64455 3.02832 7.28224 3.75353 7.16312 4.53604C7.044 5.31856 7.17412 6.11872 7.53503 6.82319L1.65976 12.6987C1.44836 12.9176 1.33138 13.2107 1.33403 13.515C1.33667 13.8192 1.45873 14.1103 1.6739 14.3255C1.88907 14.5406 2.18015 14.6627 2.48445 14.6653C2.78874 14.668 3.08189 14.551 3.30077 14.3396L9.17662 8.4641C9.88111 8.82478 10.6812 8.95471 11.4637 8.83551C12.2461 8.7163 12.9712 8.354 13.5363 7.7999C14.1014 7.24579 14.4779 6.52797 14.6124 5.74807C14.747 4.96817 14.6327 4.16571 14.2859 3.45432Z" stroke="none" stroke-width="1.5" stroke-linecap="round" stroke-linejoin="round"/>
</svg>
