<svg width="16" height="16" viewBox="0 0 16 16" fill="none" xmlns="http://www.w3.org/2000/svg">
<path d="M14.3335 4.06683C14.1335 3.9335 13.8668 3.9335 13.6668 4.06683L10.7335 6.06683V4.66683C10.7335 3.9335 10.1335 3.3335 9.40016 3.3335H2.66683C1.9335 3.3335 1.3335 3.9335 1.3335 4.66683V11.3335C1.3335 12.0668 1.9335 12.6668 2.66683 12.6668H9.3335C10.0668 12.6668 10.6668 12.0668 10.6668 11.3335V9.9335L13.6002 11.9335C13.7335 12.0002 13.8668 12.0668 14.0002 12.0668C14.1335 12.0668 14.2002 12.0668 14.3335 12.0002C14.5335 11.8668 14.6668 11.6668 14.6668 11.4002V4.66683C14.6668 4.40016 14.5335 4.20016 14.3335 4.06683ZM9.3335 11.3335H2.66683V4.66683H9.3335V7.3335V8.66683V11.3335ZM13.3335 10.0668L10.6668 8.26683V7.66683L13.3335 5.86683V10.0668Z" fill="#6E83C2"/>
</svg>
