<svg width="28" height="28" viewBox="0 0 28 28" fill="none" xmlns="http://www.w3.org/2000/svg">
<path d="M2.3335 19.5264C2.3335 19.869 2.40097 20.2082 2.53205 20.5247C2.66314 20.8411 2.85528 21.1287 3.0975 21.3709C3.33972 21.6131 3.62727 21.8053 3.94375 21.9364C4.26022 22.0674 4.59942 22.1349 4.94197 22.1349C5.28452 22.1349 5.62371 22.0674 5.94019 21.9364C6.25666 21.8053 6.54422 21.6131 6.78644 21.3709C7.02866 21.1287 7.22079 20.8411 7.35188 20.5247C7.48297 20.2082 7.55044 19.869 7.55044 19.5264C7.55044 19.1839 7.48297 18.8447 7.35188 18.5282C7.22079 18.2117 7.02866 17.9242 6.78644 17.682C6.54422 17.4398 6.25666 17.2476 5.94019 17.1165C5.62371 16.9854 5.28452 16.918 4.94197 16.918C4.59942 16.918 4.26022 16.9854 3.94375 17.1165C3.62727 17.2476 3.33972 17.4398 3.0975 17.682C2.85528 17.9242 2.66314 18.2117 2.53205 18.5282C2.40097 18.8447 2.3335 19.1839 2.3335 19.5264Z" stroke="currentColor" stroke-width="2" stroke-linecap="round" stroke-linejoin="round"/>
<path d="M9.05641 25.5949C8.79329 24.9787 8.39506 24.4295 7.89115 23.9878C7.38725 23.5462 6.79055 23.2234 6.14514 23.0434C5.49974 22.8633 4.82212 22.8306 4.16237 22.9476C3.50263 23.0647 2.87761 23.3284 2.3335 23.7195" stroke="currentColor" stroke-width="2" stroke-linecap="round" stroke-linejoin="round"/>
<path d="M19.4775 19.5264C19.4775 20.2183 19.7524 20.8817 20.2415 21.3709C20.7307 21.8601 21.3942 22.1349 22.086 22.1349C22.7778 22.1349 23.4413 21.8601 23.9305 21.3709C24.4197 20.8817 24.6945 20.2183 24.6945 19.5264C24.6945 18.8346 24.4197 18.1712 23.9305 17.682C23.4413 17.1928 22.7778 16.918 22.086 16.918C21.3942 16.918 20.7307 17.1928 20.2415 17.682C19.7524 18.1712 19.4775 18.8346 19.4775 19.5264Z" stroke="currentColor" stroke-width="2" stroke-linecap="round" stroke-linejoin="round"/>
<path d="M17.9717 25.5949C18.2348 24.9787 18.633 24.4295 19.1369 23.9878C19.6408 23.5462 20.2375 23.2234 20.883 23.0434C21.5284 22.8633 22.206 22.8306 22.8657 22.9476C23.5255 23.0647 24.1505 23.3284 24.6946 23.7195" stroke="currentColor" stroke-width="2" stroke-linecap="round" stroke-linejoin="round"/>
<path d="M10.1597 18.7799C10.1597 19.6695 10.5131 20.5227 11.1421 21.1517C11.7711 21.7807 12.6243 22.1341 13.5138 22.1341C14.4034 22.1341 15.2566 21.7807 15.8856 21.1517C16.5146 20.5227 16.868 19.6695 16.868 18.7799C16.868 17.8904 16.5146 17.0372 15.8856 16.4082C15.2566 15.7792 14.4034 15.4258 13.5138 15.4258C12.6243 15.4258 11.7711 15.7792 11.1421 16.4082C10.5131 17.0372 10.1597 17.8904 10.1597 18.7799Z" stroke="currentColor" stroke-width="2" stroke-linecap="round" stroke-linejoin="round"/>
<path d="M17.9714 25.5952C17.4065 24.9746 16.7182 24.4788 15.9506 24.1395C15.183 23.8002 14.353 23.625 13.5138 23.625C12.6746 23.625 11.8446 23.8002 11.077 24.1395C10.3094 24.4788 9.62107 24.9746 9.05615 25.5952" stroke="currentColor" stroke-width="2" stroke-linecap="round" stroke-linejoin="round"/>
<path d="M14.0408 3.82326L15.2823 6.26646H17.3959C17.5103 6.26692 17.6221 6.30104 17.7173 6.36456C17.8125 6.42808 17.8869 6.51821 17.9313 6.6237C17.9756 6.7292 17.988 6.84542 17.9668 6.95788C17.9456 7.07034 17.8917 7.17408 17.812 7.25618L15.8676 9.1666L16.9428 11.636C16.9916 11.7492 17.0033 11.875 16.9762 11.9952C16.9491 12.1155 16.8846 12.2241 16.7919 12.3054C16.6993 12.3867 16.5833 12.4366 16.4605 12.4478C16.3378 12.4591 16.2146 12.4312 16.1087 12.3681L13.5138 10.9069L10.9151 12.3652C10.8092 12.4283 10.686 12.4562 10.5632 12.4449C10.4405 12.4336 10.3245 12.3838 10.2318 12.3025C10.1392 12.2211 10.0747 12.1126 10.0475 11.9923C10.0204 11.8721 10.0321 11.7463 10.0809 11.6331L11.1562 9.16368L9.21173 7.25326C9.13194 7.1711 9.07811 7.06728 9.05693 6.95473C9.03576 6.84217 9.04818 6.72588 9.09266 6.62034C9.13713 6.5148 9.21169 6.42469 9.30703 6.36124C9.40238 6.2978 9.51429 6.26382 9.62881 6.26354H11.7415L12.9869 3.82326C13.0363 3.726 13.1117 3.64431 13.2047 3.58726C13.2977 3.5302 13.4047 3.5 13.5138 3.5C13.6229 3.5 13.7299 3.5302 13.8229 3.58726C13.9159 3.64431 13.9913 3.726 14.0408 3.82326Z" stroke="currentColor" stroke-width="2" stroke-linecap="round" stroke-linejoin="round"/>
<path d="M6.80579 4.99221C6.69644 4.99135 6.58906 5.02126 6.49588 5.0785C6.40271 5.13574 6.32751 5.21803 6.27885 5.31596L5.03732 7.75818H2.92468C2.80996 7.75827 2.69781 7.79218 2.60226 7.85568C2.50672 7.91917 2.43201 8.00943 2.3875 8.11517C2.34299 8.2209 2.33064 8.33741 2.352 8.45013C2.37336 8.56284 2.42748 8.66676 2.5076 8.74887L4.44815 10.6603L3.37287 13.1287C3.32408 13.2419 3.31241 13.3677 3.33952 13.4879C3.36663 13.6082 3.43114 13.7167 3.52379 13.7981C3.61644 13.8794 3.73246 13.9292 3.85521 13.9405C3.97796 13.9518 4.10113 13.9239 4.20704 13.8608L6.80579 12.3986L7.49315 12.7875" stroke="currentColor" stroke-width="2" stroke-linecap="round" stroke-linejoin="round"/>
<path d="M20.2225 4.99221C20.3319 4.99135 20.4393 5.02126 20.5324 5.0785C20.6256 5.13574 20.7008 5.21803 20.7495 5.31596L21.991 7.75818H24.1036C24.2183 7.75827 24.3305 7.79218 24.426 7.85568C24.5216 7.91917 24.5963 8.00943 24.6408 8.11517C24.6853 8.2209 24.6977 8.33741 24.6763 8.45013C24.6549 8.56284 24.6008 8.66676 24.5207 8.74887L22.5802 10.6603L23.6554 13.1307C23.7042 13.2439 23.7159 13.3696 23.6888 13.4899C23.6617 13.6101 23.5972 13.7187 23.5045 13.8C23.4119 13.8813 23.2958 13.9312 23.1731 13.9425C23.0503 13.9537 22.9272 13.9258 22.8213 13.8628L20.2225 12.3986L19.5352 12.7875" stroke="currentColor" stroke-width="2" stroke-linecap="round" stroke-linejoin="round"/>
</svg>
