<svg width="16" height="16" viewBox="0 0 16 16" fill="none" xmlns="http://www.w3.org/2000/svg">
<path d="M6.66667 8C6.66667 8.73638 7.26362 9.33333 8 9.33333C8.73638 9.33333 9.33333 8.73638 9.33333 8C9.33333 7.26362 8.73638 6.66667 8 6.66667C7.26362 6.66667 6.66667 7.26362 6.66667 8Z" fill="#0146C5"/>
<path d="M6.66667 4C6.66667 4.73638 7.26362 5.33333 8 5.33333C8.73638 5.33333 9.33333 4.73638 9.33333 4C9.33333 3.26362 8.73638 2.66667 8 2.66667C7.26362 2.66667 6.66667 3.26362 6.66667 4Z" fill="#0146C5"/>
<path d="M6.66667 12C6.66667 12.7364 7.26362 13.3333 8 13.3333C8.73638 13.3333 9.33333 12.7364 9.33333 12C9.33333 11.2636 8.73638 10.6667 8 10.6667C7.26362 10.6667 6.66667 11.2636 6.66667 12Z" fill="#0146C5"/>
</svg>
