<svg width="20" height="20" viewBox="0 0 20 20" fill="none" xmlns="http://www.w3.org/2000/svg">
<path d="M1.66797 5.00065C1.66797 4.08018 2.41416 3.33398 3.33464 3.33398H16.668C17.5884 3.33398 18.3346 4.08018 18.3346 5.00065V14.1673C18.3346 15.0878 17.5884 15.834 16.668 15.834H12.8465L10.5906 18.0899C10.2651 18.4153 9.73748 18.4153 9.41205 18.0899L7.15612 15.834H3.33464C2.41416 15.834 1.66797 15.0878 1.66797 14.1673V5.00065ZM16.668 5.00065H3.33464V14.1673H7.5013C7.72232 14.1673 7.93428 14.2551 8.09056 14.4114L10.0013 16.3221L11.912 14.4114C12.0683 14.2551 12.2803 14.1673 12.5013 14.1673H16.668V5.00065ZM5.0013 7.91732C5.0013 7.45708 5.3744 7.08398 5.83464 7.08398H14.168C14.6282 7.08398 15.0013 7.45708 15.0013 7.91732C15.0013 8.37756 14.6282 8.75065 14.168 8.75065H5.83464C5.3744 8.75065 5.0013 8.37756 5.0013 7.91732ZM5.0013 11.2507C5.0013 10.7904 5.3744 10.4173 5.83464 10.4173H10.8346C11.2949 10.4173 11.668 10.7904 11.668 11.2507C11.668 11.7109 11.2949 12.084 10.8346 12.084H5.83464C5.3744 12.084 5.0013 11.7109 5.0013 11.2507Z" fill="#959595"/>
</svg>
