<svg width="16" height="16" viewBox="0 0 16 16" fill="currentColor" xmlns="http://www.w3.org/2000/svg">
<path d="M6.66683 7.99996C6.66683 8.73634 7.26378 9.33329 8.00016 9.33329C8.73654 9.33329 9.3335 8.73634 9.3335 7.99996C9.3335 7.26358 8.73654 6.66663 8.00016 6.66663C7.26378 6.66663 6.66683 7.26358 6.66683 7.99996Z" fill="currentColor"/>
<path d="M6.66683 3.99996C6.66683 4.73634 7.26378 5.33329 8.00016 5.33329C8.73654 5.33329 9.3335 4.73634 9.3335 3.99996C9.3335 3.26358 8.73654 2.66663 8.00016 2.66663C7.26378 2.66663 6.66683 3.26358 6.66683 3.99996Z" fill="currentColor"/>
<path d="M6.66683 12C6.66683 12.7363 7.26378 13.3333 8.00016 13.3333C8.73654 13.3333 9.3335 12.7363 9.3335 12C9.3335 11.2636 8.73654 10.6666 8.00016 10.6666C7.26378 10.6666 6.66683 11.2636 6.66683 12Z" fill="currentColor"/>
</svg>
