<svg width="20" height="24" viewBox="0 0 20 24" fill="none" xmlns="http://www.w3.org/2000/svg">
<g id="Group">
<path id="Vector" d="M3.4656 0.0750351C2.88904 0.21566 2.29373 0.628159 1.95623 1.12503C1.87654 1.24222 1.74998 1.48129 1.67498 1.6641L1.53904 1.99222L1.52498 6.99378L1.51092 12H1.2906C0.971853 12 0.596853 12.1969 0.41404 12.4594L0.273415 12.6657L0.259353 16.0688C0.24529 19.8985 0.231228 19.7297 0.592165 20.0391C0.803103 20.2219 1.01404 20.2969 1.30935 20.2969H1.50623L1.52498 21.1547C1.54373 21.9375 1.55779 22.036 1.67029 22.3266C1.90467 22.9266 2.32185 23.4 2.87029 23.6907C3.49373 24.0141 3.04842 24 10.6375 24C17.3172 24 17.4953 24 17.8469 23.9063C18.0484 23.8547 18.3297 23.7469 18.4797 23.6625C18.8265 23.4657 19.2672 23.011 19.4547 22.6594C19.7687 22.0688 19.75 22.636 19.75 13.9219V6.02347L16.7406 3.0141L13.7265 3.43323e-05L8.73435 0.0047226C4.59529 0.00940895 3.69529 0.0187836 3.4656 0.0750351ZM13.1031 3.38441C13.1219 5.17035 13.1265 5.23597 13.2297 5.49847C13.4312 6.00472 13.7969 6.37503 14.289 6.55785C14.5375 6.6516 14.6406 6.65628 16.3469 6.65628H18.1469L18.1797 11.4C18.1937 14.011 18.2031 17.4047 18.1937 18.9422L18.1797 21.736L18.039 21.961C17.9406 22.125 17.8281 22.2235 17.664 22.3078L17.4344 22.4297L10.7734 22.4438C6.0156 22.4532 4.04685 22.4391 3.86404 22.4016C3.67654 22.3641 3.55935 22.3032 3.40935 22.1625C3.1281 21.9047 3.06248 21.6657 3.06248 20.8969V20.2969H9.29685C16.225 20.2969 15.7094 20.3203 16.0609 19.9782C16.3797 19.6688 16.375 19.725 16.375 16.1625C16.375 13.8985 16.3609 12.9188 16.3187 12.7641C16.2484 12.4828 15.9109 12.1219 15.6484 12.0516C15.5172 12.0141 13.6047 12 9.26404 12H3.06248V7.25159C3.06248 3.21097 3.07185 2.46566 3.13279 2.26878C3.22185 1.9641 3.49373 1.69691 3.79842 1.61253C3.97654 1.56566 5.0031 1.5516 8.55623 1.5516L13.0844 1.54691L13.1031 3.38441ZM4.82498 14.1141C5.65935 14.2688 6.0531 14.7516 6.00623 15.5578C5.98279 15.9703 5.87029 16.2235 5.61717 16.4438C5.27498 16.7438 4.88123 16.875 4.29529 16.875H3.90623V17.6485V18.4219H3.41404H2.92185V16.2938V14.161L3.12341 14.1375C3.70935 14.0578 4.46873 14.0485 4.82498 14.1141ZM8.58435 14.1094C9.83123 14.2688 10.4687 14.9625 10.4687 16.1672C10.4687 17.3578 9.9156 18.0844 8.81873 18.3516C8.43904 18.4453 7.60467 18.4922 7.07967 18.4453L6.67185 18.4125V16.2891V14.161L6.87342 14.1375C7.45467 14.0578 8.09685 14.0485 8.58435 14.1094ZM13.7969 14.5078V14.9063H12.9531H12.1094V15.3985V15.8907H12.8828H13.6562V16.2891V16.6875H12.8828H12.1094V17.5547V18.4219H11.6172H11.125V16.2657V14.1094H12.4609H13.7969V14.5078Z" fill="#6E83C2"/>
<path id="Vector_2" d="M3.93906 14.8453C3.92031 14.8594 3.90625 15.1547 3.90625 15.5016V16.125H4.225C4.72187 16.125 5.0125 15.9187 5.06406 15.5297C5.10156 15.2531 4.97031 15.0094 4.73125 14.9016C4.54375 14.8172 4.00469 14.775 3.93906 14.8453Z" fill="#6E83C2"/>
<path id="Vector_3" d="M7.74063 14.8407C7.66094 14.8641 7.65625 14.9719 7.65625 16.2704V17.6719L7.78281 17.7C7.975 17.7516 8.58906 17.6344 8.8 17.5125C9.05313 17.3625 9.175 17.2266 9.30625 16.9454C9.4 16.7438 9.41406 16.636 9.41406 16.1954C9.41406 15.7547 9.4 15.6516 9.31094 15.4922C9.17031 15.2297 8.93594 15.0188 8.6875 14.9297C8.47188 14.85 7.88594 14.7985 7.74063 14.8407Z" fill="#6E83C2"/>
</g>
</svg>
