<svg xmlns="http://www.w3.org/2000/svg" width="16" height="16" viewBox="0 0 16 16" fill="none">
  <path d="M2.55611 2.66634H5.54941L6.51421 5.07836L4.96429 6.11164C4.77883 6.23528 4.66743 6.44344 4.66743 6.66634C4.66912 6.72876 4.66743 6.66701 4.66743 6.66701L4.66743 6.66771L4.66743 6.6692L4.66745 6.67256L4.66755 6.68079C4.66765 6.68693 4.66782 6.6944 4.6681 6.70314C4.66866 6.72061 4.66968 6.74321 4.67151 6.77058C4.67516 6.82531 4.68203 6.8993 4.69496 6.98979C4.7208 7.17065 4.77095 7.41842 4.86831 7.71049C5.0638 8.29696 5.44791 9.0563 6.19602 9.80441C6.94413 10.5525 7.70347 10.9366 8.28994 11.1321C8.58202 11.2295 8.82978 11.2796 9.01065 11.3055C9.10113 11.3184 9.17512 11.3253 9.22985 11.3289C9.25723 11.3308 9.27982 11.3318 9.2973 11.3323C9.30604 11.3326 9.3135 11.3328 9.31965 11.3329L9.32787 11.333L9.33124 11.333L9.33273 11.333L9.33343 11.333C9.33343 11.333 9.40785 11.3289 9.33409 11.333C9.58661 11.333 9.81745 11.1903 9.93038 10.9645L10.3768 10.0716L13.3341 10.5644V13.4443C11.9267 13.6479 8.1257 13.8485 5.13883 10.8616C2.15197 7.87474 2.35257 4.07374 2.55611 2.66634ZM6.04986 6.9904L7.25381 6.18776C7.77844 5.83801 7.98635 5.16859 7.75218 4.58317L6.78737 2.17115C6.58489 1.66494 6.09461 1.33301 5.54941 1.33301H2.52128C1.91561 1.33301 1.34549 1.75378 1.24606 2.41094C1.01985 3.90601 0.711951 8.32034 4.19602 11.8044C7.6801 15.2885 12.0944 14.9806 13.5895 14.7544C14.2467 14.6549 14.6674 14.0848 14.6674 13.4792V10.5644C14.6674 9.91264 14.1962 9.35639 13.5533 9.24923L10.596 8.75636C10.0187 8.66013 9.44605 8.95172 9.18427 9.47527L8.95328 9.93726C8.88067 9.91944 8.79963 9.89657 8.71158 9.86722C8.29805 9.72938 7.72406 9.44683 7.13883 8.8616C6.55361 8.27638 6.27106 7.70239 6.13322 7.28886C6.09597 7.17711 6.06915 7.07664 6.04986 6.9904Z" fill="currentColor"/>
</svg>
