<svg width="20" height="20" viewBox="0 0 20 20" fill="none"
     xmlns="http://www.w3.org/2000/svg">
  <path
    d="M10.0003 3.33341C6.31843 3.33341 3.33366 6.31818 3.33366 10.0001C3.33366 13.682 6.31843 16.6667 10.0003 16.6667C13.6822 16.6667 16.667 13.682 16.667 10.0001C16.667 6.31818 13.6822 3.33341 10.0003 3.33341ZM1.66699 10.0001C1.66699 5.39771 5.39795 1.66675 10.0003 1.66675C14.6027 1.66675 18.3337 5.39771 18.3337 10.0001C18.3337 14.6025 14.6027 18.3334 10.0003 18.3334C5.39795 18.3334 1.66699 14.6025 1.66699 10.0001ZM10.0003 5.83341C10.4606 5.83341 10.8337 6.20651 10.8337 6.66675V9.16675H13.3337C13.7939 9.16675 14.167 9.53984 14.167 10.0001C14.167 10.4603 13.7939 10.8334 13.3337 10.8334H10.8337V13.3334C10.8337 13.7937 10.4606 14.1667 10.0003 14.1667C9.54009 14.1667 9.16699 13.7937 9.16699 13.3334V10.8334H6.66699C6.20676 10.8334 5.83366 10.4603 5.83366 10.0001C5.83366 9.53984 6.20676 9.16675 6.66699 9.16675H9.16699V6.66675C9.16699 6.20651 9.54009 5.83341 10.0003 5.83341Z"
    fill="currentColor"/>
</svg>
