<svg width="24" height="24" viewBox="0 0 24 24" fill="none" xmlns="http://www.w3.org/2000/svg">
<path fill-rule="evenodd" clip-rule="evenodd" d="M5 0H14V4H16.0625C16.5803 4 17 4.44772 17 5V12H22C22.5523 12 23 12.4477 23 13V21C23 21.5523 22.5523 22 22 22H17V23C17 23.5523 16.5803 24 16.0625 24H2.9375C2.41973 24 2 23.5523 2 23V5C2 4.44772 2.41973 4 2.9375 4H5V0ZM4 6H15V22H4V6ZM11 10H8V11H11V10ZM6 8.625C6 8.27982 6.39175 8 6.875 8H12.125C12.6082 8 13 8.27982 13 8.625V12.375C13 12.7202 12.6082 13 12.125 13H6.875C6.39175 13 6 12.7202 6 12.375V8.625ZM6.375 15C6.16789 15 6 15.1119 6 15.25V16.75C6 16.8881 6.16789 17 6.375 17H8.625C8.83211 17 9 16.8881 9 16.75V15.25C9 15.1119 8.83211 15 8.625 15H6.375ZM10 15.25C10 15.1119 10.1679 15 10.375 15H12.625C12.8321 15 13 15.1119 13 15.25V16.75C13 16.8881 12.8321 17 12.625 17H10.375C10.1679 17 10 16.8881 10 16.75V15.25ZM10.375 18C10.1679 18 10 18.1119 10 18.25V19.75C10 19.8881 10.1679 20 10.375 20H12.625C12.8321 20 13 19.8881 13 19.75V18.25C13 18.1119 12.8321 18 12.625 18H10.375ZM6 18.25C6 18.1119 6.16789 18 6.375 18H8.625C8.83211 18 9 18.1119 9 18.25V19.75C9 19.8881 8.83211 20 8.625 20H6.375C6.16789 20 6 19.8881 6 19.75V18.25ZM17 17H21V20H17V17ZM21 14H17V15H21V14ZM12 2H7V4H12V2Z" fill="currentColor"/>
</svg>
