<svg width="24" height="24" viewBox="0 0 24 24" fill="none" xmlns="http://www.w3.org/2000/svg">
  <path id="Vector" d="M18.3634 1.88611C18.2781 1.76655 18.1654 1.66913 18.0347 1.60196C17.9041 1.5348 17.7593 1.49984 17.6124 1.5H6.58206C6.43516 1.49984 6.29036 1.5348 6.15972 1.60196C6.02908 1.66913 5.91638 1.76655 5.83104 1.88611L1.6714 7.70997C1.5599 7.86623 1.49997 8.0534 1.5 8.24536V21.7729C1.5 22.0173 1.59709 22.2517 1.7699 22.4245C1.94271 22.5974 2.1771 22.6944 2.4215 22.6944H21.7729C22.0173 22.6944 22.2517 22.5974 22.4245 22.4245C22.5974 22.2517 22.6944 22.0173 22.6944 21.7729V8.24536C22.6945 8.0534 22.6345 7.86623 22.523 7.70997L18.3634 1.88611Z" stroke="currentColor" stroke-width="2" stroke-linecap="round" stroke-linejoin="round"/>
  <path id="Vector_2" d="M12.0972 1.5V7.95048" stroke="currentColor" stroke-width="2" stroke-linecap="round" stroke-linejoin="round"/>
  <path id="Vector_3" d="M13.0196 17.1641H19.4701C19.4701 17.1641 19.9308 17.1641 19.9308 17.6248V19.4678C19.9308 19.4678 19.9308 19.9286 19.4701 19.9286H13.0196C13.0196 19.9286 12.5588 19.9286 12.5588 19.4678V17.6248C12.5588 17.6248 12.5588 17.1641 13.0196 17.1641Z" stroke="currentColor" stroke-width="2" stroke-linecap="round" stroke-linejoin="round"/>
  <path id="Vector_4" d="M1.54883 7.94922H22.6456" stroke="currentColor" stroke-width="2" stroke-linecap="round" stroke-linejoin="round"/>
</svg>
