<svg width="24" height="24" viewBox="0 0 24 24" fill="none" xmlns="http://www.w3.org/2000/svg">
<path d="M18.1716 7.00053L11 7.00053C7.68629 7.00053 5 9.68682 5 13.0006C5 16.3143 7.68629 19.0006 11 19.0006L19 19.0006C19.5523 19.0006 20 19.4483 20 20.0006C20 20.5529 19.5523 21.0006 19 21.0006L11 21.0006C6.58172 21.0006 3 17.4188 3 13.0006C3 8.58225 6.58172 5.00053 11 5.00053H18.1716L16.3431 3.17213C15.9526 2.7816 15.9526 2.14839 16.3432 1.75787C16.7337 1.36736 17.3669 1.36736 17.7574 1.75788L21.2929 5.29343C21.6834 5.68395 21.6834 6.31711 21.2929 6.70763L17.7574 10.2432C17.3669 10.6337 16.7337 10.6337 16.3432 10.2432C15.9526 9.85268 15.9526 9.21947 16.3431 8.82894L18.1716 7.00053Z" fill="#0146C5"/>
</svg>
