<svg width="20" height="20" viewBox="0 0 20 20" fill="none" xmlns="http://www.w3.org/2000/svg">
    <path
        d="M10.6594 1.91205C10.9849 1.58661 11.5125 1.58661 11.838 1.91205L14.338 4.41205C14.6634 4.73748 14.6634 5.26512 14.338 5.59056L11.838 8.09056C11.5125 8.41599 10.9849 8.41599 10.6594 8.09056C10.334 7.76512 10.334 7.23748 10.6594 6.91205L11.7369 5.83464H10.4154C7.45894 5.83464 4.9987 8.29487 4.9987 11.2513C4.9987 14.2077 7.45894 16.668 10.4154 16.668C13.3718 16.668 15.832 14.2077 15.832 11.2513C15.832 10.7911 16.2051 10.418 16.6654 10.418C17.1256 10.418 17.4987 10.7911 17.4987 11.2513C17.4987 15.1282 14.2923 18.3346 10.4154 18.3346C6.53846 18.3346 3.33203 15.1282 3.33203 11.2513C3.33203 7.3744 6.53846 4.16797 10.4154 4.16797H11.7369L10.6594 3.09056C10.334 2.76512 10.334 2.23748 10.6594 1.91205Z"
        fill="#0146C5" />
</svg>