<svg width="28" height="28" viewBox="0 0 28 28" fill="none" xmlns="http://www.w3.org/2000/svg">
<path d="M13.2574 7.58464C13.0769 7.58454 12.9 7.53419 12.7465 7.43924C12.5929 7.34428 12.4689 7.20846 12.3882 7.047L11.4666 5.20561C11.3859 5.04414 11.2618 4.90832 11.1083 4.81337C10.9548 4.71841 10.7779 4.66807 10.5974 4.66797H3.30572C3.04787 4.66797 2.80058 4.7704 2.61825 4.95273C2.43593 5.13505 2.3335 5.38234 2.3335 5.64019V23.1402C2.3335 23.398 2.43593 23.6453 2.61825 23.8277C2.80058 24.01 3.04787 24.1124 3.30572 24.1124H23.7224C23.9802 24.1124 24.2275 24.01 24.4098 23.8277C24.5922 23.6453 24.6946 23.398 24.6946 23.1402V8.55686C24.6946 8.29901 24.5922 8.05172 24.4098 7.86939C24.2275 7.68707 23.9802 7.58464 23.7224 7.58464H13.2574Z" stroke="currentColor" stroke-width="2" stroke-linecap="round" stroke-linejoin="round"/>
<path d="M8.65283 14.8772C8.65283 15.9086 9.06255 16.8977 9.79186 17.627C10.5212 18.3563 11.5103 18.7661 12.5417 18.7661C13.5731 18.7661 14.5623 18.3563 15.2916 17.627C16.0209 16.8977 16.4306 15.9086 16.4306 14.8772C16.4306 13.8458 16.0209 12.8566 15.2916 12.1273C14.5623 11.398 13.5731 10.9883 12.5417 10.9883C11.5103 10.9883 10.5212 11.398 9.79186 12.1273C9.06255 12.8566 8.65283 13.8458 8.65283 14.8772Z" stroke="currentColor" stroke-width="2" stroke-linecap="round" stroke-linejoin="round"/>
<path d="M15.2915 17.625L18.3754 20.7089" stroke="currentColor" stroke-width="2" stroke-linecap="round" stroke-linejoin="round"/>
</svg>
