<svg width="28" height="28" viewBox="0 0 28 28" fill="none" xmlns="http://www.w3.org/2000/svg">
  <path d="M15.3013 7.93617L15.7539 9.40691C15.867 9.97258 16.4327 10.1988 16.9983 10.0857L18.4691 9.74631C19.8267 9.40691 20.7317 10.9908 19.8267 12.009L18.8085 13.1403C18.4691 13.5929 18.4691 14.1585 18.8085 14.4979L19.8267 15.6293C20.7317 16.6475 19.8267 18.2313 18.4691 17.8919L16.9983 17.5525C16.4327 17.4394 15.9801 17.7788 15.7539 18.2313L15.3013 19.7021C14.8488 21.0597 13.0386 21.0597 12.6992 19.7021L12.2467 18.2313C12.1336 17.6657 11.5679 17.4394 11.0022 17.5525L9.53149 17.8919C8.17389 18.2313 7.26882 16.6475 8.17389 15.6293L9.19209 14.4979C9.53149 14.0454 9.53149 13.4797 9.19209 13.1403L8.17389 12.009C7.26882 10.9908 8.17389 9.40691 9.53149 9.74631L11.0022 10.0857C11.5679 10.1988 12.0204 9.85945 12.2467 9.40691L12.6992 7.93617C13.0386 6.57857 14.8488 6.57857 15.3013 7.93617Z" stroke="currentColor" stroke-width="2" stroke-miterlimit="10" stroke-linecap="round" stroke-linejoin="round"/>
  <path d="M5.01288 22.5865C3.82978 21.4414 2.88901 20.0701 2.24652 18.5542C1.60404 17.0382 1.27295 15.4085 1.27295 13.7621C1.27295 12.1156 1.60404 10.4859 2.24652 8.96993C2.88901 7.45397 3.82978 6.08269 5.01288 4.93762C8.83906 1.20421 14.4064 0.299135 19.0449 2.33554" stroke="currentColor" stroke-width="2" stroke-miterlimit="10" stroke-linecap="round" stroke-linejoin="round"/>
  <path d="M26.3508 5.27705L22.9873 5.05078L22.7554 8.21853" stroke="currentColor" stroke-width="2" stroke-miterlimit="10" stroke-linecap="round" stroke-linejoin="round"/>
  <path d="M1.76611 22.2463L5.01305 22.5857L5.36037 19.418" stroke="currentColor" stroke-width="2" stroke-miterlimit="10" stroke-linecap="round" stroke-linejoin="round"/>
  <path d="M22.9876 5.05078C24.1707 6.19585 25.1114 7.56714 25.7539 9.08309C26.3964 10.5991 26.7275 12.2287 26.7275 13.8752C26.7275 15.5217 26.3964 17.1514 25.7539 18.6673C25.1114 20.1833 24.1707 21.5546 22.9876 22.6997C19.1602 26.4331 13.5941 27.3381 8.95557 25.3017" stroke="currentColor" stroke-width="2" stroke-miterlimit="10" stroke-linecap="round" stroke-linejoin="round"/>
  <path d="M14.0004 15.4256C14.4262 15.4256 14.8345 15.2564 15.1356 14.9554C15.4366 14.6543 15.6058 14.246 15.6058 13.8202C15.6058 13.3944 15.4366 12.9861 15.1356 12.685C14.8345 12.384 14.4262 12.2148 14.0004 12.2148C13.5746 12.2148 13.1663 12.384 12.8652 12.685C12.5642 12.9861 12.395 13.3944 12.395 13.8202C12.395 14.246 12.5642 14.6543 12.8652 14.9554C13.1663 15.2564 13.5746 15.4256 14.0004 15.4256Z" stroke="currentColor" stroke-width="2" stroke-miterlimit="10" stroke-linecap="round" stroke-linejoin="round"/>
</svg>
