<svg xmlns="http://www.w3.org/2000/svg" width="20" height="20" viewBox="0 0 20 20" fill="currentColor">
  <path d="M9.40944 1.91058C9.73488 1.58514 10.2625 1.58514 10.588 1.91058L13.088 4.41058C13.4134 4.73602 13.4134 5.26366 13.088 5.58909C12.7625 5.91453 12.2349 5.91453 11.9094 5.58909L10.832 4.51168V12.4998C10.832 12.9601 10.4589 13.3332 9.9987 13.3332C9.53846 13.3332 9.16536 12.9601 9.16536 12.4998V4.51168L8.08795 5.58909C7.76252 5.91453 7.23488 5.91453 6.90944 5.58909C6.58401 5.26366 6.58401 4.73602 6.90944 4.41058L9.40944 1.91058ZM3.33203 9.1665C3.33203 8.24603 4.07822 7.49984 4.9987 7.49984H6.66536C7.1256 7.49984 7.4987 7.87293 7.4987 8.33317C7.4987 8.79341 7.1256 9.1665 6.66536 9.1665H4.9987V16.6665H14.9987V9.1665H13.332C12.8718 9.1665 12.4987 8.79341 12.4987 8.33317C12.4987 7.87293 12.8718 7.49984 13.332 7.49984H14.9987C15.9192 7.49984 16.6654 8.24603 16.6654 9.1665V16.6665C16.6654 17.587 15.9192 18.3332 14.9987 18.3332H4.9987C4.07822 18.3332 3.33203 17.587 3.33203 16.6665V9.1665Z" fill="currentColor"/>
</svg>
