<svg width="20" height="20" viewBox="0 0 20 20" fill="none" xmlns="http://www.w3.org/2000/svg">
<path d="M17.4987 11.0345V16.666H18.332V18.3327H1.66536V16.666H2.4987V11.0345C1.49371 10.3618 0.832031 9.21618 0.832031 7.91602C0.832031 7.22673 1.01906 6.56286 1.35971 5.99723L3.61978 2.08268C3.76864 1.82485 4.04375 1.66602 4.34146 1.66602H15.6559C15.9536 1.66602 16.2288 1.82485 16.3776 2.08268L18.6299 5.98412C18.9784 6.56286 19.1654 7.22673 19.1654 7.91602C19.1654 9.21618 18.5037 10.3618 17.4987 11.0345ZM15.832 11.6431C15.6952 11.6583 15.5562 11.666 15.4154 11.666C14.3661 11.666 13.3978 11.231 12.707 10.5103C12.0163 11.231 11.0479 11.666 9.9987 11.666C8.94945 11.666 7.98111 11.231 7.29036 10.5103C6.59961 11.231 5.63129 11.666 4.58203 11.666C4.4412 11.666 4.30217 11.6583 4.16536 11.6431V16.666H15.832V11.6431ZM4.82257 3.33268L2.79535 6.84369C2.60211 7.16471 2.4987 7.53177 2.4987 7.91602C2.4987 9.0666 3.43144 9.99935 4.58203 9.99935C5.44116 9.99935 6.20259 9.4746 6.51686 8.6906C6.79653 7.99287 7.7842 7.99287 8.06387 8.6906C8.37811 9.4746 9.13953 9.99935 9.9987 9.99935C10.8579 9.99935 11.6193 9.4746 11.9335 8.6906C12.2132 7.99287 13.2009 7.99287 13.4805 8.6906C13.7948 9.4746 14.5562 9.99935 15.4154 9.99935C16.5659 9.99935 17.4987 9.0666 17.4987 7.91602C17.4987 7.53177 17.3953 7.16471 17.1943 6.83057L15.1748 3.33268H4.82257Z" fill="#959595"/>
</svg>
