<svg width="20" height="20" viewBox="0 0 20 20" fill="none" xmlns="http://www.w3.org/2000/svg">
<path d="M2.5 4.16667C2.5 3.24619 3.24619 2.5 4.16667 2.5H15.8333C16.7538 2.5 17.5 3.24619 17.5 4.16667V15.8333C17.5 16.7538 16.7538 17.5 15.8333 17.5H4.16667C3.24619 17.5 2.5 16.7538 2.5 15.8333V4.16667ZM4.16667 11.6667V15.8333H15.8333V11.6667H13.934L13.2906 13.5969C13.1771 13.9371 12.8587 14.1667 12.5 14.1667H7.5C7.14131 14.1667 6.82286 13.9371 6.70943 13.5969L6.06603 11.6667H4.16667ZM15.8333 10V4.16667H4.16667V10H6.06603C6.78342 10 7.42032 10.459 7.64717 11.1396L8.10063 12.5H11.8994L12.3528 11.1396C12.5797 10.459 13.2166 10 13.934 10H15.8333Z" fill="#959595"/>
</svg>
