<svg width="24" height="24" viewBox="0 0 24 24" fill="none" xmlns="http://www.w3.org/2000/svg">
<path d="M5.82843 7.00053L7.65686 8.82897C8.04738 9.21949 8.04738 9.85265 7.65686 10.2432C7.26633 10.6337 6.63317 10.6337 6.24264 10.2432L2.70711 6.70764C2.31658 6.31711 2.31658 5.68395 2.70711 5.29342L6.24264 1.75789C6.63317 1.36737 7.26633 1.36737 7.65686 1.75789C8.04738 2.14842 8.04738 2.78158 7.65686 3.17211L5.82843 5.00053L13 5.00053C17.4183 5.00053 21 8.58225 21 13.0006C21 17.4188 17.4183 21.0006 13 21.0006H5C4.44772 21.0006 4 20.5529 4 20.0006C4 19.4483 4.44772 19.0006 5 19.0006H13C16.3137 19.0006 19 16.3143 19 13.0006C19 9.68682 16.3137 7.00053 13 7.00053L5.82843 7.00053Z" fill="#0146C5"/>
</svg>
