<svg width="20" height="20" viewBox="0 0 20 20" fill="none" xmlns="http://www.w3.org/2000/svg">
<path d="M10 3.33268C8.15905 3.33268 6.66667 4.82507 6.66667 6.66602C6.66667 8.50697 8.15905 9.99935 10 9.99935C11.8409 9.99935 13.3333 8.50697 13.3333 6.66602C13.3333 4.82507 11.8409 3.33268 10 3.33268ZM5 6.66602C5 3.90459 7.23858 1.66602 10 1.66602C12.7614 1.66602 15 3.90459 15 6.66602C15 9.42744 12.7614 11.666 10 11.666C7.23858 11.666 5 9.42744 5 6.66602ZM6.66667 14.9993C5.28595 14.9993 4.16667 16.1186 4.16667 17.4993C4.16667 17.9596 3.79357 18.3327 3.33333 18.3327C2.8731 18.3327 2.5 17.9596 2.5 17.4993C2.5 15.1982 4.36548 13.3327 6.66667 13.3327H13.3333C15.6345 13.3327 17.5 15.1982 17.5 17.4993C17.5 17.9596 17.1269 18.3327 16.6667 18.3327C16.2064 18.3327 15.8333 17.9596 15.8333 17.4993C15.8333 16.1186 14.714 14.9993 13.3333 14.9993H6.66667Z" fill="#959595"/>
</svg>
