<svg width="18" height="18" viewBox="0 0 18 18" fill="none" xmlns="http://www.w3.org/2000/svg">
<path d="M7.33464 2.33268C6.45058 2.33268 5.60273 2.68387 4.97761 3.30899C4.35249 3.93411 4.0013 4.78196 4.0013 5.66602C4.0013 6.55007 4.35249 7.39792 4.97761 8.02304C5.60273 8.64816 6.45058 8.99935 7.33464 8.99935C8.21869 8.99935 9.06654 8.64816 9.69166 8.02304C10.3168 7.39792 10.668 6.55007 10.668 5.66602C10.668 4.78196 10.3168 3.93411 9.69166 3.30899C9.06654 2.68387 8.21869 2.33268 7.33464 2.33268ZM2.33464 5.66602C2.33464 4.33993 2.86142 3.06816 3.7991 2.13048C4.73678 1.1928 6.00855 0.666016 7.33464 0.666016C8.66072 0.666016 9.93249 1.1928 10.8702 2.13048C11.8079 3.06816 12.3346 4.33993 12.3346 5.66602C12.3346 6.9921 11.8079 8.26387 10.8702 9.20155C9.93249 10.1392 8.66072 10.666 7.33464 10.666C6.00855 10.666 4.73678 10.1392 3.7991 9.20155C2.86142 8.26387 2.33464 6.9921 2.33464 5.66602ZM13.0246 2.13018C13.102 2.0527 13.1939 1.99124 13.2951 1.9493C13.3963 1.90736 13.5047 1.88578 13.6142 1.88578C13.7237 1.88578 13.8322 1.90736 13.9333 1.9493C14.0345 1.99124 14.1264 2.0527 14.2038 2.13018C14.6682 2.59449 15.0366 3.14572 15.2879 3.7524C15.5392 4.35909 15.6686 5.00934 15.6686 5.66602C15.6686 6.3227 15.5392 6.97295 15.2879 7.57963C15.0366 8.18631 14.6682 8.73755 14.2038 9.20185C14.1264 9.27927 14.0345 9.34069 13.9333 9.38259C13.8321 9.4245 13.7237 9.44606 13.6142 9.44606C13.5047 9.44606 13.3963 9.4245 13.2951 9.38259C13.194 9.34069 13.1021 9.27927 13.0246 9.20185C12.9472 9.12442 12.8858 9.03251 12.8439 8.93135C12.802 8.83018 12.7804 8.72176 12.7804 8.61227C12.7804 8.50277 12.802 8.39435 12.8439 8.29319C12.8858 8.19203 12.9472 8.10011 13.0246 8.02268C13.6495 7.39759 14.0006 6.5499 14.0006 5.66602C14.0006 4.78214 13.6495 3.93444 13.0246 3.30935C12.9472 3.23195 12.8857 3.14005 12.8438 3.03888C12.8018 2.93772 12.7802 2.82928 12.7802 2.71977C12.7802 2.61025 12.8018 2.50181 12.8438 2.40065C12.8857 2.29948 12.9472 2.20758 13.0246 2.13018ZM13.6096 12.9635C13.6634 12.7493 13.7999 12.5652 13.9893 12.4516C14.1787 12.338 14.4054 12.3042 14.6196 12.3577C15.7263 12.6343 16.4271 13.341 16.8296 14.1477C17.2196 14.9268 17.3346 15.7977 17.3346 16.4993C17.3346 16.7204 17.2468 16.9323 17.0906 17.0886C16.9343 17.2449 16.7223 17.3327 16.5013 17.3327C16.2803 17.3327 16.0683 17.2449 15.912 17.0886C15.7558 16.9323 15.668 16.7204 15.668 16.4993C15.668 15.9518 15.5746 15.3635 15.3396 14.8927C15.1171 14.4485 14.7755 14.1143 14.2155 13.9743C14.0013 13.9206 13.8172 13.7841 13.7036 13.5947C13.59 13.4053 13.5562 13.1778 13.6096 12.9635ZM4.41797 13.9993C3.36797 13.9993 2.33464 15.0102 2.33464 16.4993C2.33464 16.7204 2.24684 16.9323 2.09056 17.0886C1.93428 17.2449 1.72232 17.3327 1.5013 17.3327C1.28029 17.3327 1.06833 17.2449 0.912046 17.0886C0.755766 16.9323 0.667969 16.7204 0.667969 16.4993C0.667969 14.306 2.24547 12.3327 4.41797 12.3327H10.2513C12.4238 12.3327 14.0013 14.306 14.0013 16.4993C14.0013 16.7204 13.9135 16.9323 13.7572 17.0886C13.6009 17.2449 13.389 17.3327 13.168 17.3327C12.947 17.3327 12.735 17.2449 12.5787 17.0886C12.4224 16.9323 12.3346 16.7204 12.3346 16.4993C12.3346 15.0102 11.3013 13.9993 10.2513 13.9993H4.41797Z" fill="#959595"/>
</svg>
