<svg width="20" height="20" viewBox="0 0 20 20" fill="none" xmlns="http://www.w3.org/2000/svg">
<path d="M11.881 12.5C11.2265 11.7076 10.8333 10.6913 10.8333 9.58333C10.8333 7.05203 12.8853 5 15.4167 5C17.948 5 20 7.05203 20 9.58333C20 12.1147 17.948 14.1667 15.4167 14.1667H4.58333C2.05202 14.1667 0 12.1147 0 9.58333C0 7.05203 2.05202 5 4.58333 5C7.11464 5 9.16667 7.05203 9.16667 9.58333C9.16667 10.6913 8.7735 11.7076 8.11903 12.5H11.881ZM4.58333 12.5C6.19417 12.5 7.5 11.1942 7.5 9.58333C7.5 7.9725 6.19417 6.66667 4.58333 6.66667C2.9725 6.66667 1.66667 7.9725 1.66667 9.58333C1.66667 11.1942 2.9725 12.5 4.58333 12.5ZM15.4167 12.5C17.0275 12.5 18.3333 11.1942 18.3333 9.58333C18.3333 7.9725 17.0275 6.66667 15.4167 6.66667C13.8058 6.66667 12.5 7.9725 12.5 9.58333C12.5 11.1942 13.8058 12.5 15.4167 12.5Z" fill="#4876D5"/>
</svg>
