<svg width="16" height="16" viewBox="0 0 13 12" fill="none" xmlns="http://www.w3.org/2000/svg">
<path d="M6.49935 7.00067C6.22321 7.00067 5.99935 6.77682 5.99935 6.50067V5.00067C5.99935 4.72453 6.22321 4.50067 6.49935 4.50067C6.7755 4.50067 6.99935 4.72453 6.99935 5.00067V6.50067C6.99935 6.77682 6.77549 7.00067 6.49935 7.00067Z" fill="#C62421"/>
<path d="M5.74935 8.25067C5.74935 7.83646 6.08514 7.50067 6.49935 7.50067C6.91357 7.50067 7.24935 7.83646 7.24935 8.25067C7.24935 8.66489 6.91357 9.00067 6.49935 9.00067C6.08514 9.00067 5.74935 8.66489 5.74935 8.25067Z" fill="#C62421"/>
<path d="M5.61443 1.60847C5.98935 0.896137 7.00936 0.896132 7.38427 1.60847L11.5561 9.53493C11.9066 10.2008 11.4237 11.0007 10.6712 11.0007H2.32753C1.57502 11.0007 1.09214 10.2008 1.44262 9.53493L5.61443 1.60847ZM10.6712 10.0007L6.49935 2.07422L2.32753 10.0007L10.6712 10.0007Z" fill="#C62421"/>
</svg>
