<svg width="20" height="20" viewBox="0 0 20 20" fill="none" xmlns="http://www.w3.org/2000/svg">
<path d="M3.33464 2.5C2.41416 2.5 1.66797 3.24619 1.66797 4.16667V8.33333V15.8333C1.66797 16.7538 2.41416 17.5 3.33464 17.5H16.668C17.5884 17.5 18.3346 16.7538 18.3346 15.8333V8.33333V4.16667C18.3346 3.24619 17.5884 2.5 16.668 2.5H3.33464ZM16.668 4.16667V7.5H3.33464V4.16667H16.668ZM3.33464 9.16667H16.668V15.8333H3.33464V9.16667ZM8.33464 5.83333C8.33464 6.29357 7.96154 6.66667 7.5013 6.66667C7.04107 6.66667 6.66797 6.29357 6.66797 5.83333C6.66797 5.3731 7.04107 5 7.5013 5C7.96154 5 8.33464 5.3731 8.33464 5.83333ZM5.0013 6.66667C5.46154 6.66667 5.83464 6.29357 5.83464 5.83333C5.83464 5.3731 5.46154 5 5.0013 5C4.54106 5 4.16797 5.3731 4.16797 5.83333C4.16797 6.29357 4.54106 6.66667 5.0013 6.66667Z" fill="#959595"/>
</svg>
